<?xml version="1.0" encoding="utf-8"?>
<!-- Generator: Adobe Illustrator 24.0.2, SVG Export Plug-In . SVG Version: 6.00 Build 0)  -->
<svg version="1.1" id="Layer_1" xmlns="http://www.w3.org/2000/svg" xmlns:xlink="http://www.w3.org/1999/xlink" x="0px" y="0px"
	 viewBox="0 0 512 512" style="enable-background:new 0 0 512 512;" xml:space="preserve">
<style type="text/css">
	.st0{fill:#18B8C4;}
</style>
<g>
	<path class="st0" d="M246.5,368.2l117.3-102.6c6-5.3,6-14.7,0-19.9L246.5,143.1c-5.2-4.5-2-13,4.9-13H356c5.6,0,11,2,15.2,5.7
		l125.7,109.9c6,5.3,6,14.7,0,19.9L371.3,375.5c-4.2,3.7-9.6,5.7-15.2,5.7H251.4C244.5,381.2,241.3,372.8,246.5,368.2z"/>
	<g>
		<g>
			<path class="st0" d="M177.2,134.9c-5.4,5.4-5.4,14.2,0,19.6c5.4,5.4,14.2,5.4,19.6,0c5.4-5.4,5.4-14.2,0-19.6
				C191.4,129.5,182.6,129.5,177.2,134.9z"/>
			<path class="st0" d="M214.2,171.9c-5.4,5.4-5.4,14.2,0,19.6c5.4,5.4,14.2,5.4,19.6,0c5.4-5.4,5.4-14.2,0-19.6
				C228.4,166.5,219.6,166.5,214.2,171.9z"/>
			<path class="st0" d="M251.2,208.9c-5.4,5.4-5.4,14.2,0,19.7c5.4,5.4,14.2,5.4,19.7,0c5.4-5.4,5.4-14.2,0-19.7
				C265.4,203.4,256.6,203.4,251.2,208.9z"/>
			<path class="st0" d="M288.2,245.9c-5.4,5.4-5.4,14.2,0,19.7c5.4,5.4,14.2,5.4,19.7,0c5.4-5.4,5.4-14.2,0-19.7
				C302.4,240.4,293.6,240.4,288.2,245.9z"/>
		</g>
		<g>
			<path class="st0" d="M177.2,376.5c-5.4-5.4-5.4-14.2,0-19.7c5.4-5.4,14.2-5.4,19.6,0c5.4,5.4,5.4,14.2,0,19.7
				C191.4,381.9,182.6,381.9,177.2,376.5z"/>
			<path class="st0" d="M214.2,339.5c-5.4-5.4-5.4-14.2,0-19.7c5.4-5.4,14.2-5.4,19.6,0c5.4,5.4,5.4,14.2,0,19.7
				C228.4,344.9,219.6,344.9,214.2,339.5z"/>
			<path class="st0" d="M251.2,302.5c-5.4-5.4-5.4-14.2,0-19.7c5.4-5.4,14.2-5.4,19.7,0c5.4,5.4,5.4,14.2,0,19.7
				C265.4,307.9,256.6,307.9,251.2,302.5z"/>
			<path class="st0" d="M288.2,265.5c-5.4-5.4-5.4-14.2,0-19.7c5.4-5.4,14.2-5.4,19.7,0c5.4,5.4,5.4,14.2,0,19.7
				C302.4,270.9,293.6,270.9,288.2,265.5z"/>
		</g>
	</g>
	<g>
		<g>
			<path class="st0" d="M95.6,134.9c-5.4,5.4-5.4,14.2,0,19.6c5.4,5.4,14.2,5.4,19.6,0c5.4-5.4,5.4-14.2,0-19.6
				C109.8,129.5,101,129.5,95.6,134.9z"/>
			<path class="st0" d="M132.6,171.9c-5.4,5.4-5.4,14.2,0,19.6c5.4,5.4,14.2,5.4,19.6,0c5.4-5.4,5.4-14.2,0-19.6
				C146.8,166.5,138,166.5,132.6,171.9z"/>
			<path class="st0" d="M169.6,208.9c-5.4,5.4-5.4,14.2,0,19.7c5.4,5.4,14.2,5.4,19.6,0c5.4-5.4,5.4-14.2,0-19.7
				C183.8,203.4,175,203.4,169.6,208.9z"/>
			<path class="st0" d="M206.5,245.9c-5.4,5.4-5.4,14.2,0,19.7c5.4,5.4,14.2,5.4,19.7,0c5.4-5.4,5.4-14.2,0-19.7
				C220.8,240.4,212,240.4,206.5,245.9z"/>
		</g>
		<g>
			<path class="st0" d="M95.6,376.5c-5.4-5.4-5.4-14.2,0-19.7c5.4-5.4,14.2-5.4,19.6,0c5.4,5.4,5.4,14.2,0,19.7
				C109.8,381.9,101,381.9,95.6,376.5z"/>
			<path class="st0" d="M132.6,339.5c-5.4-5.4-5.4-14.2,0-19.7c5.4-5.4,14.2-5.4,19.6,0c5.4,5.4,5.4,14.2,0,19.7
				C146.8,344.9,138,344.9,132.6,339.5z"/>
			<path class="st0" d="M169.6,302.5c-5.4-5.4-5.4-14.2,0-19.7c5.4-5.4,14.2-5.4,19.6,0c5.4,5.4,5.4,14.2,0,19.7
				C183.8,307.9,175,307.9,169.6,302.5z"/>
			<path class="st0" d="M206.5,265.5c-5.4-5.4-5.4-14.2,0-19.7c5.4-5.4,14.2-5.4,19.7,0c5.4,5.4,5.4,14.2,0,19.7
				C220.8,270.9,212,270.9,206.5,265.5z"/>
		</g>
	</g>
	<g>
		<g>
			<path class="st0" d="M13.9,134.9c-5.4,5.4-5.4,14.2,0,19.6c5.4,5.4,14.2,5.4,19.7,0c5.4-5.4,5.4-14.2,0-19.6
				C28.2,129.5,19.4,129.5,13.9,134.9z"/>
			<path class="st0" d="M50.9,171.9c-5.4,5.4-5.4,14.2,0,19.6c5.4,5.4,14.2,5.4,19.6,0c5.4-5.4,5.4-14.2,0-19.6
				C65.2,166.5,56.4,166.5,50.9,171.9z"/>
			<path class="st0" d="M87.9,208.9c-5.4,5.4-5.4,14.2,0,19.7c5.4,5.4,14.2,5.4,19.6,0c5.4-5.4,5.4-14.2,0-19.7
				C102.1,203.4,93.3,203.4,87.9,208.9z"/>
			<path class="st0" d="M124.9,245.9c-5.4,5.4-5.4,14.2,0,19.7c5.4,5.4,14.2,5.4,19.6,0c5.4-5.4,5.4-14.2,0-19.7
				C139.1,240.4,130.3,240.4,124.9,245.9z"/>
		</g>
		<g>
			<path class="st0" d="M13.9,376.5c-5.4-5.4-5.4-14.2,0-19.7c5.4-5.4,14.2-5.4,19.7,0c5.4,5.4,5.4,14.2,0,19.7
				C28.2,381.9,19.4,381.9,13.9,376.5z"/>
			<path class="st0" d="M50.9,339.5c-5.4-5.4-5.4-14.2,0-19.7c5.4-5.4,14.2-5.4,19.6,0c5.4,5.4,5.4,14.2,0,19.7
				C65.2,344.9,56.4,344.9,50.9,339.5z"/>
			<path class="st0" d="M87.9,302.5c-5.4-5.4-5.4-14.2,0-19.7c5.4-5.4,14.2-5.4,19.6,0c5.4,5.4,5.4,14.2,0,19.7
				C102.1,307.9,93.3,307.9,87.9,302.5z"/>
			<path class="st0" d="M124.9,265.5c-5.4-5.4-5.4-14.2,0-19.7c5.4-5.4,14.2-5.4,19.6,0c5.4,5.4,5.4,14.2,0,19.7
				C139.1,270.9,130.3,270.9,124.9,265.5z"/>
		</g>
	</g>
</g>
</svg>
