<svg xmlns="http://www.w3.org/2000/svg" width="29.905" height="35.011" viewBox="0 0 29.905 35.011"><g transform="translate(0 0)"><g transform="translate(0 0)"><path d="M74.821,956.683A7.708,7.708,0,0,0,76.515,951a8.225,8.225,0,0,0-5.32,2.88,7.132,7.132,0,0,0-1.741,5.544,6.932,6.932,0,0,0,5.367-2.74Zm10.084,20a25.3,25.3,0,0,1-2.261,4.245c-1.467,2.25-3.536,5.052-6.1,5.072-2.277.025-2.865-1.492-5.957-1.474s-3.736,1.5-6.018,1.481c-2.564-.023-4.524-2.551-5.991-4.8-4.1-6.287-4.537-13.667-2.005-17.593A9.083,9.083,0,0,1,63.88,959.2c2.715,0,4.424,1.5,6.673,1.5,2.181,0,3.509-1.5,6.65-1.5a8.861,8.861,0,0,1,6.689,3.551A7.716,7.716,0,0,0,84.9,976.687Z" transform="translate(-55 -951)" fill="#fff" fill-rule="evenodd"/></g></g></svg>