<svg xmlns="http://www.w3.org/2000/svg" xmlns:xlink="http://www.w3.org/1999/xlink" width="67.517" height="59" viewBox="0 0 67.517 59"><defs><linearGradient id="a" x1="0.5" x2="0.5" y2="1" gradientUnits="objectBoundingBox"><stop offset="0" stop-color="#9fc937"/><stop offset="1" stop-color="#50651c"/></linearGradient></defs><path d="M22.018,54.78a1.89,1.89,0,0,1,.286.973c0,1.791-2.78,3.248-6.2,3.248s-6.215-1.456-6.215-3.248a1.9,1.9,0,0,1,.28-.973c.791,1.319,3.138,2.275,5.913,2.275S21.211,56.1,22,54.78Zm19.09-1.374a2.335,2.335,0,0,1,.352,1.2c0,2.225-3.451,4.039-7.693,4.039s-7.693-1.813-7.693-4.039a2.352,2.352,0,0,1,.352-1.2c.984,1.649,3.9,2.824,7.347,2.824S40.113,55.043,41.108,53.406Zm0-4.88a2.352,2.352,0,0,1,.352,1.209c0,2.2-3.451,4.033-7.693,4.033s-7.693-1.808-7.693-4.033a2.368,2.368,0,0,1,.352-1.209c.984,1.649,3.9,2.83,7.347,2.83s6.341-1.192,7.336-2.83ZM36.542,38.361l-.088,1-3.781-.346a3.44,3.44,0,0,1,.648,1.363l-.9-.066a3.011,3.011,0,0,0-.412-.89,1.841,1.841,0,0,0-.786-.7l.066-.8,5.253.456Zm-2.78-1.544c3.489,0,6.352,1.1,6.352,2.456s-2.863,2.489-6.352,2.489-6.325-1.1-6.325-2.484S30.272,36.816,33.761,36.816Zm0-.824c4.248,0,7.693,1.808,7.693,4.033S38,44.059,33.761,44.059s-7.693-1.808-7.693-4.033S29.519,35.992,33.761,35.992Zm7.369,7.8a2.275,2.275,0,0,1,.33,1.159c0,2.2-3.451,4.033-7.693,4.033s-7.693-1.808-7.693-4.033a2.258,2.258,0,0,1,.33-1.159c.945,1.649,3.885,2.879,7.369,2.879s6.424-1.22,7.369-2.879ZM19.276,36.481a.824.824,0,0,1-1.648,0v-17.4H1.648V55.269H4.484a.824.824,0,1,1,0,1.648H.819A.819.819,0,0,1,0,56.093V18.645a1.247,1.247,0,0,1,.352-.857,1.225,1.225,0,0,1,.857-.352H17.633v-16A1.407,1.407,0,0,1,18.057.429h0A1.429,1.429,0,0,1,19.073,0H48.318a1.418,1.418,0,0,1,1.017.423L49.4.489a1.467,1.467,0,0,1,.363.951v16H66.314a1.225,1.225,0,0,1,.852.352h0a1.225,1.225,0,0,1,.352.852V56.087a.819.819,0,0,1-.819.819H62.72a.824.824,0,1,1,0-1.648h3.16V19.084H49.757V35.63a.824.824,0,0,1-1.648,0V1.648H19.276Zm37.872,2.533h4.764c.077,0,.137.044.137.093v2.676c0,.06-.06.1-.137.1H57.148c-.077,0-.137-.044-.137-.1v-2.66c0-.049.06-.093.137-.093Zm-51.653,0h4.77c.071,0,.137.044.137.093v2.676c0,.06-.066.1-.137.1H5.528c-.071,0-.137-.044-.137-.1v-2.66c0-.049.066-.093.137-.093ZM22.953,4.825H44.444a.659.659,0,0,1,.654.67V13.1a.659.659,0,0,1-.654.637H22.953a.659.659,0,0,1-.654-.654V5.495a.654.654,0,0,1,.654-.654ZM55.318,31.959h6.594c.077,0,.137.044.137.1v2.676c0,.06-.06.1-.137.1H55.318c-.071,0-.137-.044-.137-.1V32.058C55.181,32,55.247,31.959,55.318,31.959Zm-1.225-6.468h7.83c.077,0,.137.044.137.1v2.682c0,.055-.06.1-.137.1h-7.83c-.071,0-.132-.044-.132-.1V25.59C53.961,25.535,54.021,25.491,54.093,25.491ZM5.528,31.959h6.594c.077,0,.137.044.137.1v2.676c0,.06-.06.1-.137.1H5.528c-.071,0-.137-.044-.137-.1V32.058c0-.055.066-.1.137-.1Zm0-6.468h7.83c.077,0,.137.044.137.1v2.682c0,.055-.06.1-.137.1H5.528c-.071,0-.137-.044-.137-.1V25.59C5.391,25.535,5.457,25.491,5.528,25.491ZM39.6,26.722h4.836a.143.143,0,0,1,.137.137v3.61l-.137.137H39.564a.143.143,0,0,1-.137-.137V26.86a.143.143,0,0,1,.137-.137Zm-8.308,0h4.836a.143.143,0,0,1,.137.137v3.61a.143.143,0,0,1-.137.137H31.289a.143.143,0,0,1-.137-.137V26.86a.143.143,0,0,1,.137-.137Zm-8.308,0h4.836a.137.137,0,0,1,.137.137v3.61a.137.137,0,0,1-.137.137H22.969a.143.143,0,0,1-.137-.137V26.86a.143.143,0,0,1,.137-.137ZM39.564,17.65H44.4a.143.143,0,0,1,.137.137v5.143a.137.137,0,0,1-.137.132H39.564a.137.137,0,0,1-.137-.132V17.787A.137.137,0,0,1,39.564,17.65Zm-8.308,0h4.836a.143.143,0,0,1,.137.137v5.143a.137.137,0,0,1-.137.132H31.256a.137.137,0,0,1-.137-.132V17.787A.137.137,0,0,1,31.256,17.65Zm-8.308,0h4.836a.137.137,0,0,1,.137.137v5.143a.137.137,0,0,1-.137.132H22.969a.137.137,0,0,1-.137-.132V17.787a.137.137,0,0,1,.137-.137Zm34.36,37.13a1.879,1.879,0,0,1,.28.973c0,1.791-2.747,3.248-6.193,3.248s-6.2-1.456-6.2-3.248a1.9,1.9,0,0,1,.286-.973c.791,1.319,3.138,2.275,5.913,2.275s5.127-.956,5.913-2.275ZM53.653,46.6l-.071.808-3.028-.269a2.791,2.791,0,0,1,.517,1.1l-.731-.06a2.28,2.28,0,0,0-.33-.72,1.478,1.478,0,0,0-.632-.549l.077-.676,4.226.368Zm-2.236-1.264c2.808,0,5.088.9,5.088,1.995s-2.28,2-5.088,2-5.094-.9-5.094-2,2.28-1.995,5.094-1.995Zm0-.665c3.418,0,6.193,1.456,6.193,3.253s-2.747,3.248-6.193,3.248-6.2-1.456-6.2-3.248,2.78-3.253,6.2-3.253Zm5.935,6.3a1.912,1.912,0,0,1,.258.934c0,1.791-2.747,3.248-6.193,3.248s-6.2-1.456-6.2-3.248a1.846,1.846,0,0,1,.264-.934c.764,1.341,3.132,2.319,5.935,2.319s5.171-.978,5.935-2.319Zm-39.014-4.4-.071.808-3.039-.269a2.747,2.747,0,0,1,.517,1.1l-.731-.06a2.28,2.28,0,0,0-.33-.72,1.478,1.478,0,0,0-.632-.549l.06-.654,4.226.368ZM16.1,45.306c2.813,0,5.094.9,5.094,1.995s-2.28,2-5.094,2-5.088-.9-5.088-2S13.292,45.306,16.1,45.306Zm0-.665c3.418,0,6.2,1.456,6.2,3.253s-2.78,3.248-6.2,3.248-6.209-1.429-6.209-3.22,2.775-3.253,6.193-3.253Zm5.935,6.3a1.863,1.863,0,0,1,.264.934c0,1.791-2.78,3.248-6.2,3.248S9.891,53.692,9.891,51.9a1.841,1.841,0,0,1,.258-.934c.786,1.341,3.154,2.335,5.957,2.335s5.171-.978,5.935-2.319Z" transform="translate(0)" fill-rule="evenodd" fill="url(#a)"/></svg>