<svg xmlns="http://www.w3.org/2000/svg" width="79.643" height="60.924" viewBox="0 0 79.643 60.924">
  <g id="_14546796281578998708" data-name="14546796281578998708" transform="translate(-5.011 -11.055)">
    <path id="Path_403" data-name="Path 403" d="M61.585,46.185a22.66,22.66,0,1,0-9.013,8.169,11.3,11.3,0,0,0,14.942-.908c.224-.224.432-.461.633-.7Z" transform="translate(15.83 0)" fill="#fafcfd" stroke="#1d2656" stroke-miterlimit="10" stroke-width="1"/>
    <path id="Path_404" data-name="Path 404" d="M31.36,18.514a22.571,22.571,0,0,0-19.11,34.63L5.689,59.7c.2.239.408.476.633.7a11.294,11.294,0,0,0,14.942.908,22.592,22.592,0,1,0,10.1-42.8Z" transform="translate(0 7.765)" fill="#fafcfd" stroke="#1d2656" stroke-miterlimit="10" stroke-width="1"/>
    <g id="Group_62" data-name="Group 62" transform="translate(20.331 47.471)">
      <circle id="Ellipse_19" data-name="Ellipse 19" cx="2.289" cy="2.289" r="2.289" transform="translate(0 0)" fill="#1d2656"/>
      <circle id="Ellipse_20" data-name="Ellipse 20" cx="2.289" cy="2.289" r="2.289" transform="translate(8.74 0)" fill="#1d2656"/>
      <circle id="Ellipse_21" data-name="Ellipse 21" cx="2.289" cy="2.289" r="2.289" transform="translate(17.481 0)" fill="#1d2656"/>
    </g>
    <g id="Group_63" data-name="Group 63" transform="translate(48.029 32.163)">
      <circle id="Ellipse_22" data-name="Ellipse 22" cx="1.991" cy="1.991" r="1.991" transform="translate(0 0)" fill="#1d2656"/>
      <circle id="Ellipse_23" data-name="Ellipse 23" cx="1.991" cy="1.991" r="1.991" transform="translate(7.604 0)" fill="#1d2656"/>
      <circle id="Ellipse_24" data-name="Ellipse 24" cx="1.991" cy="1.991" r="1.991" transform="translate(15.206 0)" fill="#1d2656"/>
    </g>
  </g>
</svg>
