<svg xmlns="http://www.w3.org/2000/svg" xmlns:xlink="http://www.w3.org/1999/xlink" width="54.736" height="67.546" viewBox="0 0 54.736 67.546"><defs><linearGradient id="a" x1="0.5" x2="0.5" y2="1" gradientUnits="objectBoundingBox"><stop offset="0" stop-color="#9fc937"/><stop offset="1" stop-color="#50651c"/></linearGradient></defs><g transform="translate(-48.552)"><path d="M90.477,53.571h-39.6a2.329,2.329,0,0,1-2.329-2.329V2.329A2.329,2.329,0,0,1,50.881,0h39.6a2.329,2.329,0,0,1,2.329,2.329V51.242A2.329,2.329,0,0,1,90.477,53.571Z" fill="url(#a)"/><path d="M249.912,196.84V186.682c-.12.042-.247.065-.363.116a5.114,5.114,0,0,0-3.181-1.578c-.179-.018-.357-.027-.532-.027a5.33,5.33,0,0,0-.582.032v-12.26a5.247,5.247,0,0,0-5.24-5.241h0q-.264,0-.532.027a5.379,5.379,0,0,0-4.708,5.38v13.426l-2.847,2.847a8.1,8.1,0,0,0-2.171,7.632l.5,2.132h17.327A2.329,2.329,0,0,0,249.912,196.84Z" transform="translate(-157.106 -145.598)" fill="#d5dced"/><circle cx="3.494" cy="3.494" r="3.494" transform="translate(55.539 10.481)" fill="#b4e66e"/><circle cx="3.494" cy="3.494" r="3.494" transform="translate(55.539 23.292)" fill="#dae169"/><circle cx="3.494" cy="3.494" r="3.494" transform="translate(55.539 36.102)" fill="#ffdc64"/><path d="M200.763,214.19H182.13a1.165,1.165,0,0,1,0-2.329h18.633a1.165,1.165,0,0,1,0,2.329Z" transform="translate(-114.944 -183.911)" fill="#7f8499"/><path d="M196.1,178.88H182.13a1.165,1.165,0,0,1,0-2.329H196.1a1.165,1.165,0,0,1,0,2.329Z" transform="translate(-114.944 -153.259)" fill="#5b5d6e"/><path d="M200.763,311.294H182.13a1.165,1.165,0,0,1,0-2.329h18.633a1.165,1.165,0,0,1,0,2.329Z" transform="translate(-114.944 -268.205)" fill="#7f8499"/><path d="M196.1,275.983H182.13a1.165,1.165,0,0,1,0-2.329H196.1a1.165,1.165,0,0,1,0,2.329Z" transform="translate(-114.944 -237.552)" fill="#5b5d6e"/><path d="M200.763,117.087H182.13a1.165,1.165,0,0,1,0-2.329h18.633a1.165,1.165,0,0,1,0,2.329Z" transform="translate(-114.944 -99.618)" fill="#7f8499"/><path d="M196.1,81.776H182.13a1.165,1.165,0,0,1,0-2.329H196.1a1.165,1.165,0,1,1,0,2.329Z" transform="translate(-114.944 -68.966)" fill="#5b5d6e"/><path d="M273.132,205.193a2.912,2.912,0,0,0-3.212,2.9v-1a3.026,3.026,0,0,0-2.611-3.062,2.912,2.912,0,0,0-3.212,2.9v-1a3.026,3.026,0,0,0-2.611-3.062,2.912,2.912,0,0,0-3.212,2.9V188.291a2.912,2.912,0,0,0-3.212-2.9,3.026,3.026,0,0,0-2.611,3.062v14.391l-3.529,3.529a5.823,5.823,0,0,0-1.551,5.451l2.437,10.355a8.152,8.152,0,0,0,7.935,6.285h9.848a8.152,8.152,0,0,0,8.152-8.152V208.255A3.026,3.026,0,0,0,273.132,205.193Z" transform="translate(-172.456 -160.923)" fill="#f0c087"/><g transform="translate(74.761 24.529)"><path d="M332.2,324.031a1.165,1.165,0,0,0,1.165-1.165v-4.511a2.9,2.9,0,0,0-2.329,2.837v1.674A1.164,1.164,0,0,0,332.2,324.031Z" transform="translate(-319.977 -300.885)" fill="#e6af78"/><path d="M376.338,332.859a1.165,1.165,0,0,0,1.165-1.165v-4.511a2.9,2.9,0,0,0-2.329,2.837v1.674A1.165,1.165,0,0,0,376.338,332.859Z" transform="translate(-358.292 -308.548)" fill="#e6af78"/><path d="M420.475,341.686a1.165,1.165,0,0,0,1.165-1.165V336.01a2.9,2.9,0,0,0-2.329,2.837v1.674A1.164,1.164,0,0,0,420.475,341.686Z" transform="translate(-396.607 -316.211)" fill="#e6af78"/><path d="M252.714,222.665l-2.7-11.476a3.757,3.757,0,0,1,1-3.518l1.437-1.437v2.917a1.165,1.165,0,1,0,2.329,0V185.933a3.045,3.045,0,0,0-2.329,3v14.391l-3.529,3.529a5.823,5.823,0,0,0-1.551,5.451l2.437,10.355a8.152,8.152,0,0,0,7.935,6.285h2.906A8.152,8.152,0,0,1,252.714,222.665Z" transform="translate(-247.217 -185.933)" fill="#e6af78"/></g></g></svg>