<svg id="_16236678841605806464" data-name="16236678841605806464" xmlns="http://www.w3.org/2000/svg" width="107.63" height="65.576" viewBox="0 0 107.63 65.576">
  <path id="Path_408" data-name="Path 408" d="M50.9,50.248c4.187,8.724,16.869,9.03,20.881.053a23.85,23.85,0,0,1-2.706-3.468l-.394-.578a11.321,11.321,0,0,1-7.34,2.505,11.187,11.187,0,0,1-7.822-3.136c-.123-.114-.245-.228-.359-.342-.289.815-.666,1.778-1.06,2.689a16.841,16.841,0,0,1-1.2,2.277Zm32.478-14.2h2.067l5.054-5.658a1.228,1.228,0,0,1,1.725-.1h0a1.228,1.228,0,0,1,.1,1.725L88.725,36.05h11.01l-3.591-4.029a1.228,1.228,0,0,1,.1-1.725h0a1.228,1.228,0,0,1,1.725.1l5.054,5.658h3.845a.759.759,0,0,1,.753.753v2.128a.759.759,0,0,1-.753.753h-1.6l-.823,10.4a.545.545,0,0,1-.526.526H84.451a.545.545,0,0,1-.526-.526l-.823-10.4H81.5a.759.759,0,0,1-.753-.753V36.8a.759.759,0,0,1,.753-.753h1.874ZM97.738,40.1h2.382V47H97.738V40.1Zm-4.642,0h2.382V47H93.1V40.1Zm-4.642,0h2.382V47H88.454V40.1ZM36.934,52.359c.648.254,1.3.508,1.936.762,3.976-.972,8.242-1.988,10.782-3.766a13.9,13.9,0,0,0,1.025-2c.517-1.174.99-2.461,1.288-3.337A40.557,40.557,0,0,1,48.6,39.23l-3.407-5.413a9.854,9.854,0,0,1-1.927-4.94,3.967,3.967,0,0,1,.333-1.769,3.187,3.187,0,0,1,1.174-1.358,4.041,4.041,0,0,1,.823-.42,85.269,85.269,0,0,1-.158-9.731,12.249,12.249,0,0,1,.42-2.207A13.034,13.034,0,0,1,51.605,6.06a18.288,18.288,0,0,1,4.817-2.146c1.077-.307-.92-3.758.193-3.88,5.4-.552,14.145,4.379,17.912,8.461a13.175,13.175,0,0,1,3.328,8.338l-.21,8.829h0a2.456,2.456,0,0,1,1.8,1.857c.272,1.069-.026,2.584-.928,4.651h0c-.018.035-.035.07-.061.114l-3.88,6.385a33.71,33.71,0,0,1-4.756,6.56c.166.245.342.49.508.744a23.418,23.418,0,0,0,2.531,3.258.927.927,0,0,1,.088.105c4.467,3.153,14.338,3.915,18.507,6.245a11.438,11.438,0,0,1,3.644,3.083,23.735,23.735,0,0,1,2.873,6.9H.1c-1.419-7.892,10.563-11.614,14.233-14.724a26.186,26.186,0,0,0,3.722-3.451c-.526-.526-1.007-1.086-1.48-1.629L14.538,43.39l-1.524.044-2.9.079c-2.47-2.89-2.321-9.03-2.076-12.578,1.156-7.13,3.915-12.262,8.4-15.232,3.039-2.015,4.852-2.12,8.408-2.128,3.1,0,5-.07,7.646,1.673,8.619,5.676,11.29,19.068,7.077,28.089H36.558l-.193.228-.263.315L34.8,45.448a24.669,24.669,0,0,1-2.435,2.636,33.365,33.365,0,0,0,3.416,3.232c.4.377.8.718,1.156,1.042Zm-9.512,6.446a.956.956,0,0,1,.114-.149,11.438,11.438,0,0,1,3.644-3.083,14.77,14.77,0,0,1,2.391-1.007,9.086,9.086,0,0,0,.981-2.558,30.644,30.644,0,0,1-3.223-3.092l-.061.044a9.693,9.693,0,0,1-5.755,1.664,9.543,9.543,0,0,1-5.474-1.6,12.4,12.4,0,0,1-1-.753A31.623,31.623,0,0,1,15.2,51.834l-.315.263c-.149,5.124,6.806,7.988,12.534,6.709ZM47.559,26.888a3.3,3.3,0,0,0-1.717.447,1.392,1.392,0,0,0-.49.569,2.094,2.094,0,0,0-.158.911,8.072,8.072,0,0,0,1.62,3.95l.018.026h0L50.239,38.2a29.061,29.061,0,0,0,4.572,6.009,9.371,9.371,0,0,0,6.525,2.628,9.612,9.612,0,0,0,6.9-2.742,30.072,30.072,0,0,0,4.7-6.42l3.836-6.315c.718-1.629.972-2.724.815-3.363-.1-.377-.517-.569-1.235-.6-.149-.009-.307-.009-.464-.009-.175.009-.35.018-.534.035a1.114,1.114,0,0,1-.3-.018,5.372,5.372,0,0,1-1.051-.061l1.314-5.807c-9.74,1.533-17.027-5.7-27.319-1.445l.744,6.849a5.8,5.8,0,0,1-1.191-.053ZM15.107,42.313c-2.4-8.233-1.279-15.8,5.2-22.282,1.147,3.7,3.714,6.762,8.084,9.022a42.507,42.507,0,0,1,6.07,5.579c.35-1.428-.972-3.162-2.584-4.949A7.87,7.87,0,0,1,35.7,33.414a10.391,10.391,0,0,1,.736,6.709,15.368,15.368,0,0,1-.49,2.19.686.686,0,0,0-.175.14c-.175.219-.359.429-.517.622-.061.07-.114.14-.272.324l-1.305,1.568a16.611,16.611,0,0,1-3.311,3.293A8.253,8.253,0,0,1,25.5,49.67a7.942,7.942,0,0,1-4.59-1.349A16.511,16.511,0,0,1,17.7,45.238l-2.391-2.777a.576.576,0,0,0-.2-.149Z" transform="translate(0.013 0.009)" fill-rule="evenodd"/>
</svg>
