<svg xmlns="http://www.w3.org/2000/svg" xmlns:xlink="http://www.w3.org/1999/xlink" width="99.37" height="99.374" viewBox="0 0 99.37 99.374"><defs><linearGradient id="a" x1="0.5" x2="0.5" y2="1" gradientUnits="objectBoundingBox"><stop offset="0" stop-color="#9fc937"/><stop offset="1" stop-color="#50651c"/></linearGradient></defs><path d="M11.461,16.531H5.25V8.25h6.211Z" transform="translate(16.488 25.91)" fill="#75a10c"/><path d="M8.355,8.25H5.25v8.281H8.355Z" transform="translate(16.488 25.91)" fill="url(#a)"/><path d="M23.17,29.491H17.995a3.109,3.109,0,0,1-3.105-3.105h2.07a3.1,3.1,0,0,0,2.195-5.3L13.978,15.91a3.106,3.106,0,0,0-4.393,0L4.409,21.086a3.1,3.1,0,0,0,2.195,5.3h2.07a9.334,9.334,0,0,0,9.32,9.316H23.17a3.105,3.105,0,0,0,0-6.211Z" transform="translate(10.989 47.11)" fill="#75a10c"/><path d="M37.537,15.233a3.109,3.109,0,0,0-2.869-1.917H32.6A9.328,9.328,0,0,0,23.281,4H18.105a3.105,3.105,0,0,0,0,6.211h5.176a3.109,3.109,0,0,1,3.105,3.105h-2.07a3.1,3.1,0,0,0-2.195,5.3L27.3,23.792a3.1,3.1,0,0,0,4.389,0l5.176-5.176A3.1,3.1,0,0,0,37.537,15.233Z" transform="translate(47.109 12.562)" fill="#75a10c"/><path d="M42.441,35.195H7.246A7.254,7.254,0,0,1,0,27.949V7.246A7.254,7.254,0,0,1,7.246,0H42.441a7.254,7.254,0,0,1,7.246,7.246v20.7A7.254,7.254,0,0,1,42.441,35.195Z" fill="url(#a)"/><path d="M36.695,24.273H3.57A2.071,2.071,0,0,1,1.5,22.2V3.57A2.071,2.071,0,0,1,3.57,1.5H36.695a2.071,2.071,0,0,1,2.07,2.07V22.2A2.071,2.071,0,0,1,36.695,24.273Z" transform="translate(4.711 4.711)" fill="#fff"/><path d="M24.843,0H7.246A7.254,7.254,0,0,0,0,7.246v20.7a7.254,7.254,0,0,0,7.246,7.246h17.6V28.984H8.281a2.071,2.071,0,0,1-2.07-2.07V8.281a2.071,2.071,0,0,1,2.07-2.07H24.843Z" fill="url(#a)"/><path d="M20.133,1.5H3.57A2.071,2.071,0,0,0,1.5,3.57V22.2a2.071,2.071,0,0,0,2.07,2.07H20.133Z" transform="translate(4.711 4.711)" fill="#94c95e" opacity="0.2"/><path d="M17.457,15.711H7.105a3.105,3.105,0,0,1,0-6.211H17.457a3.105,3.105,0,0,1,0,6.211Z" transform="translate(12.562 29.836)" fill="#75a10c"/><path d="M20.562,10.25H4a3.107,3.107,0,0,0,3.105,3.105H17.457A3.107,3.107,0,0,0,20.562,10.25Z" transform="translate(12.562 32.191)" fill="url(#a)"/><path d="M11.781,15a3.081,3.081,0,0,0-2.195.911L4.41,21.087a3.1,3.1,0,0,0,2.195,5.3h2.07A9.328,9.328,0,0,0,17.992,35.7h5.176A3.107,3.107,0,0,0,26.273,32.6H17.495c-5.366,0-5.71-6.3-5.71-6.3Z" transform="translate(10.992 47.109)" fill="url(#a)"/><path d="M29.492,24.7a3.081,3.081,0,0,0,2.195-.911l5.176-5.176a3.1,3.1,0,0,0-2.195-5.3H32.6A9.328,9.328,0,0,0,23.281,4H18.105A3.107,3.107,0,0,0,15,7.1h8.778c5.366,0,5.71,6.3,5.71,6.3Z" transform="translate(47.109 12.556)" fill="url(#a)"/><path d="M54.441,55.406H19.246A7.254,7.254,0,0,1,12,48.16V21.246A7.254,7.254,0,0,1,19.246,14H31.668a3.1,3.1,0,0,1,2.484,1.242l5.275,7.039h15.01a7.254,7.254,0,0,1,7.246,7.246V48.16A7.248,7.248,0,0,1,54.441,55.406Z" transform="translate(37.687 43.968)" fill="url(#a)"/><path d="M31.668,14H19.246A7.254,7.254,0,0,0,12,21.246V48.16a7.254,7.254,0,0,0,7.246,7.246h17.6V18.828l-2.687-3.586A3.108,3.108,0,0,0,31.668,14Z" transform="translate(37.687 43.968)" fill="#75a10c"/></svg>