<svg xmlns="http://www.w3.org/2000/svg" xmlns:xlink="http://www.w3.org/1999/xlink" width="68.934" height="73.196" viewBox="0 0 68.934 73.196"><defs><linearGradient id="a" x1="0.5" x2="0.5" y2="1" gradientUnits="objectBoundingBox"><stop offset="0" stop-color="#9fc937"/><stop offset="1" stop-color="#50651c"/></linearGradient></defs><g transform="translate(0)"><path d="M69.433,268.067c0-.013,0-.026,0-.039l-.756-9.858a3.51,3.51,0,0,0-1.683-2.74l-.172-.1-.449-3.3a5.265,5.265,0,0,0,1.384-1.775c.012-.024.023-.048.033-.073a5.2,5.2,0,0,0,.477-2.18v-3.969a4.085,4.085,0,0,0-4.081-4.08H61.869a4.088,4.088,0,0,0-3.958,3.087,1.084,1.084,0,0,0-.047.1,1.068,1.068,0,0,0-.061.563c-.008.108-.014.217-.014.327V248a5.236,5.236,0,0,0,2.4,4.4l-.3,2.969a1.064,1.064,0,0,0-.169.16l-6.48,7.759-4.489-.016a1,1,0,0,0-.244.027,4.716,4.716,0,0,0-2.078,1.067V262.9a6.786,6.786,0,0,0-4.621-6.435l-1.853-.624a1.941,1.941,0,0,1-.791-.5,1.961,1.961,0,0,1-.546-1.364v-2l.63-.384a3.757,3.757,0,0,0,1.79-3.189v-6.157a4.142,4.142,0,0,0-4.135-4.139H33.116a4.141,4.141,0,0,0-4.135,4.139v6.157a3.756,3.756,0,0,0,1.79,3.189l.631.385v2a1.982,1.982,0,0,1-.628,1.444,1.931,1.931,0,0,1-.711.422l-1.851.623a6.786,6.786,0,0,0-4.621,6.435v1.548a4.712,4.712,0,0,0-2.168-1.149,1.025,1.025,0,0,0-.244-.027l-4.489.016-6.48-7.758a1.046,1.046,0,0,0-.169-.161l-.3-2.969a5.236,5.236,0,0,0,2.4-4.4v-3.969c0-.111-.006-.219-.015-.327a1.07,1.07,0,0,0-.061-.562,1.025,1.025,0,0,0-.048-.1,4.087,4.087,0,0,0-3.958-3.087H5.75a4.085,4.085,0,0,0-4.081,4.08V248a5.2,5.2,0,0,0,.477,2.18c.01.025.021.049.033.073a5.268,5.268,0,0,0,1.384,1.775l-.449,3.3-.171.1a3.508,3.508,0,0,0-1.683,2.737L.5,268.029c0,.013,0,.026,0,.039s0,.028,0,.044v2.727a6.442,6.442,0,0,0,6.436,6.433H63a6.442,6.442,0,0,0,6.436-6.434v-2.727c0-.015,0-.029,0-.044ZM61.869,242.1h2.317a1.938,1.938,0,0,1,1.937,1.936V248l-1.116-.783v-1a2.045,2.045,0,0,0-1.3-1.912l-3.436-1.36a1.935,1.935,0,0,1,1.6-.845Zm-1.937,3.018,2.93,1.159v.987a2.058,2.058,0,0,0,.875,1.683l1.594,1.119a3.094,3.094,0,0,1-5.4-2.062Zm3.1,8.124a5.221,5.221,0,0,0,1.323-.17l.173,1.266a5.8,5.8,0,0,0-2.373.012l.117-1.164a5.257,5.257,0,0,0,.761.056Zm-14.147,12.18,4.859.017h0a1.07,1.07,0,0,0,.823-.385l6.715-8.04a3.672,3.672,0,0,1,3.993-.117l.61.369a1.366,1.366,0,0,1,.653,1.067l.667,8.706H61.982v-3.753l.645-.677a1.072,1.072,0,1,0-1.552-1.479l-5.628,5.909h-8.3a2.549,2.549,0,0,1,1.736-1.617Zm-7.754-6.92a4.643,4.643,0,0,1,3.161,4.4v4.134H36.7l1.458-1.469a1.071,1.071,0,0,0,.262-1.075l-2.111-6.747a10.645,10.645,0,0,0,1.857-.441,4.1,4.1,0,0,0,1.108.571Zm-7.58-5.254a3.7,3.7,0,0,0,2.931,0v.734a4.126,4.126,0,0,0,.281,1.5,8.419,8.419,0,0,1-3.533.088,4.122,4.122,0,0,0,.321-1.589Zm1.4,7.31,1.24,3.961-1.253,1.262-1.114-1.241Zm-1.828-20.3h3.791a2,2,0,0,1,1.991,1.994v1.388l-5.176-1.665a1.076,1.076,0,0,0-.825.07l-1.771.925v-.718a2,2,0,0,1,1.99-1.994Zm-1.99,5.131,2.366-1.235L38.9,245.9v2.516a1.6,1.6,0,0,1-.762,1.358l-2.3,1.4a1.58,1.58,0,0,1-1.649,0l-2.3-1.4a1.6,1.6,0,0,1-.762-1.358ZM28.9,258.5l1.848-.622a4.05,4.05,0,0,0,.969-.473,10.672,10.672,0,0,0,1.787.375l-1.908,6.741a1.071,1.071,0,0,0,.233,1.008l1.353,1.508H25.737V262.9A4.641,4.641,0,0,1,28.9,258.5Zm-21.99-7.4a3.088,3.088,0,0,1-2.3-1.031L6.2,248.947a2.059,2.059,0,0,0,.875-1.683v-.987L10,245.117V248A3.1,3.1,0,0,1,6.908,251.1Zm-1.158-9H8.066a1.936,1.936,0,0,1,1.6.845L6.229,244.3a2.045,2.045,0,0,0-1.3,1.912v1L3.813,248v-3.966A1.938,1.938,0,0,1,5.75,242.1Zm1.158,11.142a5.245,5.245,0,0,0,.76-.056l.117,1.164a5.8,5.8,0,0,0-2.373-.012l.173-1.266a5.246,5.246,0,0,0,1.323.169ZM3.4,258.33a1.362,1.362,0,0,1,.653-1.064l.61-.369a3.673,3.673,0,0,1,3.993.117l6.715,8.04a1.072,1.072,0,0,0,.823.385h0l4.859-.017a2.548,2.548,0,0,1,1.736,1.617h-8.3l-5.629-5.909a1.072,1.072,0,1,0-1.552,1.479l.645.677v3.753H2.73ZM67.29,270.838A4.3,4.3,0,0,1,63,275.127H6.936a4.3,4.3,0,0,1-4.292-4.289v-1.655H7.953v.262a4.322,4.322,0,0,0,1.176,2.968,1.072,1.072,0,1,0,1.563-1.469,2.182,2.182,0,0,1-.594-1.5v-3.908l2.871,3.014v.514a4.194,4.194,0,0,0,4.191,4.189h4.516a1.072,1.072,0,0,0,0-2.144H17.16a2.047,2.047,0,0,1-2.041-1.915h8.889a1.094,1.094,0,0,0,.155-.012H45.774a1.088,1.088,0,0,0,.155.012h9.107a2.048,2.048,0,0,1-2.041,1.915H26.266a1.072,1.072,0,0,0,0,2.144H52.994a4.194,4.194,0,0,0,4.19-4.189v-.7c0-.014,0-.029,0-.044l2.655-2.788v3.908a2.181,2.181,0,0,1-.594,1.5,1.072,1.072,0,0,0,1.563,1.469,4.322,4.322,0,0,0,1.175-2.968v-.262h5.309Zm0,0" transform="translate(-0.5 -204.075)" fill="url(#a)"/><path d="M11.73,31.874h.18a4.554,4.554,0,0,0,8.238,0H35.54a3.061,3.061,0,0,0,2.887-2.058,5.427,5.427,0,0,0,7-.509,3.06,3.06,0,0,0,3.015,2.567H63.838a4.554,4.554,0,0,0,8.238,0h.18a3.061,3.061,0,0,0,3.058-3.057V11.966a3.061,3.061,0,0,0-3.058-3.057H63.565a1.072,1.072,0,0,0,0,2.144h8.691a.915.915,0,0,1,.914.913V28.817a.914.914,0,0,1-.914.912h-.309a1.939,1.939,0,0,0-1.78,1.163,2.41,2.41,0,0,1-4.42,0,1.94,1.94,0,0,0-1.78-1.163H48.445a.914.914,0,0,1-.914-.912V27.586h9.024a3.567,3.567,0,0,0,3.563-3.562V3.562A3.566,3.566,0,0,0,56.556,0H26.7a3.567,3.567,0,0,0-3.563,3.562V8.908H11.73a3.061,3.061,0,0,0-3.058,3.057v1.522a1.072,1.072,0,0,0,2.144,0V11.966a.915.915,0,0,1,.914-.913H23.137V24.024A3.567,3.567,0,0,0,26.7,27.586h9.753v1.231a.914.914,0,0,1-.914.912H20.02a1.941,1.941,0,0,0-1.782,1.164,2.41,2.41,0,0,1-4.419,0,1.94,1.94,0,0,0-1.78-1.163H11.73a.914.914,0,0,1-.914-.912V18a1.072,1.072,0,1,0-2.144,0V28.817a3.061,3.061,0,0,0,3.058,3.057Zm13.552-7.85V3.562A1.42,1.42,0,0,1,26.7,2.144H56.556a1.42,1.42,0,0,1,1.418,1.418V24.024a1.42,1.42,0,0,1-1.418,1.418H46.632a2.167,2.167,0,0,0-.367.032l-.031.006a2.156,2.156,0,0,0-1.585,1.257,3.294,3.294,0,0,1-6.04,0,2.16,2.16,0,0,0-1.984-1.3H26.7a1.42,1.42,0,0,1-1.419-1.418Zm0,0" transform="translate(-7.504 0)" fill="#75a10c"/><path d="M149.627,44.9h23.19a1.072,1.072,0,0,0,0-2.144h-23.19a1.072,1.072,0,0,0,0,2.144Zm0,0" transform="translate(-127.389 -36.642)" fill="url(#a)"/><path d="M149.627,83.434h23.19a1.072,1.072,0,0,0,0-2.144h-23.19a1.072,1.072,0,0,0,0,2.144Zm0,0" transform="translate(-127.389 -69.668)" fill="url(#a)"/><path d="M163.214,120.9a1.072,1.072,0,0,0-1.072-1.072H149.627a1.072,1.072,0,1,0,0,2.144h12.515A1.072,1.072,0,0,0,163.214,120.9Zm0,0" transform="translate(-127.389 -102.697)" fill="url(#a)"/></g></svg>