<svg id="Group_127" data-name="Group 127" xmlns="http://www.w3.org/2000/svg" xmlns:xlink="http://www.w3.org/1999/xlink" width="123.587" height="88.474" viewBox="0 0 123.587 88.474">
  <defs>
    <linearGradient id="linear-gradient" x1="0.5" x2="0.5" y2="1" gradientUnits="objectBoundingBox">
      <stop offset="0" stop-color="#9fc937"/>
      <stop offset="1" stop-color="#50651c"/>
    </linearGradient>
  </defs>
  <path id="Path_487" data-name="Path 487" d="M279.365-360.445a46.817,46.817,0,0,0-10.449,7.944A45.842,45.842,0,0,0,255.8-327.044a56.219,56.219,0,0,0,.32,16.528,46.629,46.629,0,0,0,40.385,36.92,46.545,46.545,0,0,0,39.159-14.714,43.575,43.575,0,0,0,7.357-10.743,43.733,43.733,0,0,0,4.825-17.433,46.825,46.825,0,0,0-10.715-33.054,10.6,10.6,0,0,0-2.266-2.159,2.1,2.1,0,0,0-2.666,2.24,12.534,12.534,0,0,0,1.812,2.585,43.035,43.035,0,0,1,9.7,23.058l.16,1.919-2.532.079c-2.985.134-3.652.507-3.652,2.106s.667,1.972,3.626,2.08l2.506.107v.694c0,.4-.187,1.866-.4,3.252a41.733,41.733,0,0,1-12.742,24.443c-6.691,6.45-16.127,10.8-24.764,11.436l-2.346.187v-2.559c0-2.426-.026-2.559-.694-3.092a1.79,1.79,0,0,0-2.639.107c-.613.586-.666.852-.666,3.066v2.4h-1.28a44.892,44.892,0,0,1-9.676-1.866,53.967,53.967,0,0,1-5.971-2.532,42.534,42.534,0,0,1-23.191-33.8l-.187-1.786h2.426c2.133,0,2.479-.079,3.119-.613a1.931,1.931,0,0,0,0-3.039c-.639-.533-.986-.613-3.119-.613h-2.4l.16-1.68a44.364,44.364,0,0,1,8.4-21.565A43.536,43.536,0,0,1,282-357.193c2.666-1.333,3.332-2.639,1.972-3.972C283.017-362.152,282.138-361.991,279.365-360.445Z" transform="translate(-224.399 361.784)" fill="url(#linear-gradient)"/>
  <path id="Path_488" data-name="Path 488" d="M406.426-257.471a2.078,2.078,0,0,0-1.146,2.053c0,.613,1.786,2.506,11.062,11.809l11.089,11.089-.533,1.2a6.578,6.578,0,0,0-.025,5.172A5.423,5.423,0,0,0,429-223.564a6.189,6.189,0,0,0,9.169-2.24,6.763,6.763,0,0,0,.426-4.9c-.293-.72-.053-.986,8.93-9.97,8.743-8.743,9.2-9.25,9.2-10.183a1.6,1.6,0,0,0-.692-1.52c-1.493-1.173-1.414-1.226-11.33,8.664l-9.25,9.25-1.386-.346a6.647,6.647,0,0,0-2.212-.16c-.826.16-1.146-.134-12.182-11.143-7.224-7.224-11.569-11.383-12-11.462A2.47,2.47,0,0,0,406.426-257.471Z" transform="translate(-355.432 270.752)" fill="url(#linear-gradient)"/>
  <path id="Path_489" data-name="Path 489" d="M66.23-179.765a2,2,0,0,0,.026,3.518c.666.373,1.893.4,8.077.347,6.744-.079,7.357-.107,7.864-.586a2.211,2.211,0,0,0,0-2.985c-.507-.479-1.12-.507-7.944-.586C68.683-180.11,66.737-180.031,66.23-179.765Z" transform="translate(-58.233 202.988)" fill="url(#linear-gradient)"/>
  <path id="Path_490" data-name="Path 490" d="M10.8-44.5a2.472,2.472,0,0,0-.8,1.359,2.472,2.472,0,0,0,.8,1.359l.773.8,12.689-.079,12.716-.079.507-.639a2.167,2.167,0,0,0,0-2.719l-.507-.639-12.716-.079L11.573-45.3Z" transform="translate(-10 85.212)" fill="url(#linear-gradient)"/>
  <path id="Path_491" data-name="Path 491" d="M66.23,90.8a2,2,0,0,0,.026,3.518c.666.373,1.893.4,8.077.347,6.744-.079,7.357-.107,7.864-.586a2.211,2.211,0,0,0,0-2.985c-.507-.479-1.12-.507-7.944-.586C68.683,90.455,66.737,90.536,66.23,90.8Z" transform="translate(-58.233 -33.457)" fill="url(#linear-gradient)"/>
</svg>
