<svg xmlns="http://www.w3.org/2000/svg" width="95.869" height="74.903" viewBox="0 0 95.869 74.903">
  <g id="_7576997921582962152" data-name="7576997921582962152" transform="translate(0 0)">
    <path id="Path_413" data-name="Path 413" d="M43.033,23.273H36.794a3.869,3.869,0,1,0-3.327-6.986l-5.516,2.529-5.516-2.528a3.87,3.87,0,1,0-3.33,6.986H12.87a4.9,4.9,0,0,0-4.889,4.893v4.461H9.9V54.749H46.007V32.626h1.915V28.165a4.9,4.9,0,0,0-4.889-4.893ZM28.976,20.6l5.345-2.453a1.827,1.827,0,1,1,.764,3.488H28.976Zm-9.984-.791a1.792,1.792,0,0,1,.839-1.538,1.812,1.812,0,0,1,.983-.295,1.836,1.836,0,0,1,.764.171L26.927,20.6v1.035H20.818a1.83,1.83,0,0,1-1.826-1.826ZM42.461,51.2H13.442V32.626H42.461Z" transform="translate(-3.687 -15.909)" fill="#2e79bd"/>
    <path id="Path_414" data-name="Path 414" d="M94.017,57.216H83.872l-1.062-2.425L75.225,37.457a1.731,1.731,0,0,0-1.586-1.04H51V64.15H2.469v15.6A1.731,1.731,0,0,0,4.2,81.482h7.056a12.133,12.133,0,1,0,24.018,0H65.529a12.133,12.133,0,1,0,24.018,0H96.6a1.735,1.735,0,0,0,1.735-1.735V61.537a4.321,4.321,0,0,0-4.321-4.321ZM23.267,90.8a7.585,7.585,0,0,1-7.2-9.984c.02-.043.037-.085.053-.13a7.627,7.627,0,0,1,3.928-4.34c.1-.05.21-.1.317-.14.084-.034.167-.068.252-.1.142-.053.288-.1.434-.148.092-.028.187-.055.281-.08s.164-.043.247-.06c.165-.039.334-.071.5-.1q.291-.045.587-.069c.068-.005.137-.009.206-.012h.007c.041,0,.084-.005.126-.005q.128-.005.256-.005t.256.005c.043,0,.085,0,.126.005h.007c.069,0,.139.007.206.012q.3.024.587.069c.169.027.338.059.5.1.084.018.165.039.247.06l.244.069c.121.037.242.076.363.119s.238.089.354.137c.06.025.121.052.181.078.034.014.066.03.1.046.1.046.2.1.3.148q.1.051.2.107c.087.048.174.1.26.149.1.064.2.128.3.2a7.613,7.613,0,0,1,2.907,3.759,1.276,1.276,0,0,0,.057.135,7.59,7.59,0,0,1-7.2,9.979ZM57.945,53.751V39.885H72.5l6.067,13.866ZM77.539,90.8a7.585,7.585,0,0,1-7.2-9.984c.02-.043.037-.085.053-.13a7.627,7.627,0,0,1,3.928-4.34c.1-.05.21-.1.317-.14.084-.034.167-.068.252-.1.142-.053.288-.1.434-.148.092-.028.187-.055.281-.08s.164-.043.247-.06c.165-.039.334-.071.5-.1q.291-.045.587-.069c.068-.005.137-.009.206-.012h.007c.041,0,.084-.005.126-.005q.128-.005.256-.005t.256.005c.043,0,.085,0,.126.005h.007c.069,0,.139.007.206.012q.3.024.587.069c.169.027.338.059.5.1.084.018.165.039.247.06l.244.069c.121.037.242.076.363.119s.238.089.354.137c.06.025.121.052.181.078.034.014.066.03.1.046.1.046.2.1.3.148q.1.051.2.107c.087.048.174.1.26.149.1.064.2.128.3.2a7.613,7.613,0,0,1,2.907,3.759,1.28,1.28,0,0,0,.057.135,7.59,7.59,0,0,1-7.2,9.979Z" transform="translate(-2.469 -20.441)" fill="#2d3e50"/>
  </g>
</svg>
