<svg xmlns="http://www.w3.org/2000/svg" xmlns:xlink="http://www.w3.org/1999/xlink" width="97.001" height="60.326" viewBox="0 0 97.001 60.326"><defs><linearGradient id="a" x1="0.5" x2="0.5" y2="1" gradientUnits="objectBoundingBox"><stop offset="0" stop-color="#9fc937"/><stop offset="1" stop-color="#50651c"/></linearGradient></defs><g transform="translate(0.031)"><path d="M27.275,35.857,32.9,16.08a1.642,1.642,0,0,1,1.578-1.2H58.448a1.649,1.649,0,0,1,1.578,1.326L65.8,35.936a1.642,1.642,0,0,1-1.113,2.028,1.578,1.578,0,0,1-.458.071h-35.4A1.642,1.642,0,0,1,27.18,36.4a1.618,1.618,0,0,1,.095-.568Z" transform="translate(-5.736 -3.137)" fill="#fac900" fill-rule="evenodd"/><path d="M16.61,0l-.182.15a6.755,6.755,0,0,1,1.484,5.169,6.763,6.763,0,0,1-2.5,4.735l.142.182A6.708,6.708,0,0,1,20.729,8.76a6.755,6.755,0,0,1,4.735,2.494l.182-.142a6.771,6.771,0,0,1-1.484-5.177A6.8,6.8,0,0,1,26.672,1.2l-.15-.182A6.787,6.787,0,0,1,21.4,2.494,6.748,6.748,0,0,1,16.665,0Z" transform="translate(-3.255)" fill="#fac900" fill-rule="evenodd"/><path d="M.088,68.055,5.707,48.27a1.657,1.657,0,0,1,1.578-1.2H31.261A1.642,1.642,0,0,1,32.84,48.4l5.769,19.73A1.634,1.634,0,0,1,37.5,70.154a1.578,1.578,0,0,1-.458.063H1.643A1.642,1.642,0,0,1,.064,68.023Z" transform="translate(0 -9.923)" fill="#fac900" fill-rule="evenodd"/><path d="M54.4,68.055,60.015,48.27a1.657,1.657,0,0,1,1.578-1.2H74.931a10.638,10.638,0,0,0,.687,2.2,11.587,11.587,0,0,0-.442,1.247A10.26,10.26,0,0,0,75.72,57.9a11.049,11.049,0,0,0-.545,1.484,10.606,10.606,0,0,0-.442,2.912,11.049,11.049,0,0,0,3.48,7.955H55.951a1.642,1.642,0,0,1-1.642-1.634,1.334,1.334,0,0,1,.095-.56Z" transform="translate(-11.455 -9.923)" fill="#fac900" fill-rule="evenodd"/><path d="M27.228,35.915l5.627-19.777a1.649,1.649,0,0,1,1.578-1.207H58.4a1.649,1.649,0,0,1,1.578,1.326l.095.308H36.943a1.649,1.649,0,0,0-1.578,1.2L29.737,37.548h0a1.578,1.578,0,0,0-.095.552H28.79a1.642,1.642,0,0,1-1.642-1.634,1.286,1.286,0,0,1,.079-.56Z" transform="translate(-5.729 -3.147)" fill="#e6bd00" fill-rule="evenodd"/><path d="M.095,68.057,5.714,48.272A1.649,1.649,0,0,1,7.292,47.08H31.268A1.642,1.642,0,0,1,32.846,48.4l.095.308H9.8A1.649,1.649,0,0,0,8.223,49.9L2.6,69.682h0a1.428,1.428,0,0,0-.095.552H1.642A1.642,1.642,0,0,1,0,68.609a1.578,1.578,0,0,1,.095-.552Z" transform="translate(-0.007 -9.925)" fill="#e3b600" fill-rule="evenodd"/><path d="M.095,68.057,5.714,48.272A1.649,1.649,0,0,1,7.292,47.08H31.268A1.642,1.642,0,0,1,32.846,48.4l.095.308H9.8A1.649,1.649,0,0,0,8.223,49.9L2.6,69.682h0a1.428,1.428,0,0,0-.095.552H1.642A1.642,1.642,0,0,1,0,68.609a1.578,1.578,0,0,1,.095-.552Z" transform="translate(-0.007 -9.925)" fill="#e6bd00" fill-rule="evenodd"/><path d="M54.4,68.057l5.619-19.785A1.649,1.649,0,0,1,61.6,47.08H74.931a11.263,11.263,0,0,0,.442,1.626H64.1A1.673,1.673,0,0,0,62.525,49.9L56.9,69.682h0a1.578,1.578,0,0,0-.095.552h-.852A1.642,1.642,0,0,1,54.31,68.6a1.278,1.278,0,0,1,.095-.552Z" transform="translate(-11.455 -9.925)" fill="#e6bd00" fill-rule="evenodd"/><path d="M6.33,21.42l-.182.142a6.763,6.763,0,0,1,1.484,5.169,6.763,6.763,0,0,1-2.5,4.735l.142.182a6.74,6.74,0,0,1,5.177-1.476,6.732,6.732,0,0,1,4.735,2.5l.182-.15a6.763,6.763,0,0,1-1.46-5.122,6.771,6.771,0,0,1,2.51-4.735l-.15-.182A6.763,6.763,0,0,1,11.1,23.969a6.8,6.8,0,0,1-4.735-2.5Z" transform="translate(-1.088 -4.515)" fill="#fac900" fill-rule="evenodd"/><path d="M115.04,46.548a4.159,4.159,0,0,1,.616,2.123c0,3.946-6.061,7.1-13.519,7.1s-13.527-3.157-13.527-7.1a4.112,4.112,0,0,1,.623-2.123c1.72,2.881,6.842,4.972,12.9,4.972S113.32,49.428,115.04,46.548Zm.616,10.986c0,3.946-6.053,7.1-13.519,7.1s-13.527-3.157-13.527-7.1a4.1,4.1,0,0,1,.623-2.123c1.72,2.881,6.842,4.972,12.9,4.972,4,0,10.646-1.184,12.9-4.972a4.1,4.1,0,0,1,.616,2.123Zm-8.642-28.845-.158,1.76-6.629-.576a6.124,6.124,0,0,1,1.136,2.368L99.785,32.1a5.169,5.169,0,0,0-.718-1.578,3.2,3.2,0,0,0-1.381-1.231l.126-1.428,9.226.789Zm-4.877-2.754c6.132,0,11.112,1.957,11.112,4.356s-4.98,4.364-11.112,4.364S91.025,32.7,91.025,30.291,96,25.934,102.137,25.934Zm0-1.444c7.458,0,13.519,3.157,13.519,7.1s-6.061,7.1-13.519,7.1-13.527-3.157-13.527-7.1,6.061-7.1,13.527-7.1Zm12.951,13.74a4.127,4.127,0,0,1,.568,2.036c0,3.946-6.061,7.1-13.519,7.1s-13.527-3.157-13.527-7.1a3.946,3.946,0,0,1,.576-2.036c1.665,2.92,6.827,5.051,12.951,5.051s11.278-2.131,12.951-5.051Z" transform="translate(-18.686 -5.163)" fill-rule="evenodd" fill="url(#a)"/></g></svg>