<svg xmlns="http://www.w3.org/2000/svg" xmlns:xlink="http://www.w3.org/1999/xlink" width="67.727" height="70.055" viewBox="0 0 67.727 70.055"><defs><linearGradient id="a" x1="0.5" x2="0.5" y2="1" gradientUnits="objectBoundingBox"><stop offset="0" stop-color="#9fc937"/><stop offset="1" stop-color="#50651c"/></linearGradient></defs><g transform="translate(-8.506)"><path d="M42.37,20.871H40.45v1.1a.759.759,0,0,0,.225.539.772.772,0,0,0,.543.229h2.308a.781.781,0,0,0,.768-.768v-1.1Zm27.476,24.9L64.71,44.026l-3.347,1.641v1.548a4.241,4.241,0,0,0,8.482,0V45.767ZM61.363,43.39l2.769-1.353a1.009,1.009,0,0,1,.842-.081L69.845,43.6V41.571a1.933,1.933,0,0,0-1.92-1.924H63.287a1.934,1.934,0,0,0-1.924,1.924V43.39ZM14.894,42.242h8.482V39.647H16.818a1.934,1.934,0,0,0-1.924,1.924ZM23.377,44.3H14.894v2.917a4.241,4.241,0,0,0,8.483,0Zm23.236,1.369a6.893,6.893,0,0,1-5.55-1.489,5.174,5.174,0,0,1-2.932.706v2.331a4.241,4.241,0,0,0,8.482,0V45.667Zm-8.482-2.839a3.081,3.081,0,0,0,2.385-.749,1.021,1.021,0,0,1,1.443.1A4.822,4.822,0,0,0,46.613,43.6V41.571a1.934,1.934,0,0,0-1.924-1.924H40.051a1.934,1.934,0,0,0-1.92,1.924Zm-12.7,4.387a6.255,6.255,0,0,1-1.074,3.51,6,6,0,0,1,5.411,5.965V69.031a1.023,1.023,0,0,1-1.024,1.024H9.534a1.026,1.026,0,0,1-1.028-1.024V65.184a1.026,1.026,0,0,1,2.052,0V68h1.974v-9.4a1.028,1.028,0,0,1,2.056,0V68h9.1v-9.4a1.026,1.026,0,1,1,2.052,0V68h1.974V56.689a3.946,3.946,0,0,0-3.94-3.941H22.128a6.29,6.29,0,0,1-5.981,0H14.5a3.953,3.953,0,0,0-3.945,3.941v3.848a1.026,1.026,0,0,1-2.052,0V56.689a6.009,6.009,0,0,1,5.415-5.965,6.257,6.257,0,0,1-1.078-3.51V41.57a3.986,3.986,0,0,1,3.975-3.975H24.4a1.023,1.023,0,0,1,1.024,1.024v8.6Zm46.469,0a6.255,6.255,0,0,1-1.074,3.51,6,6,0,0,1,5.411,5.965V69.031a1.023,1.023,0,0,1-1.024,1.024H56a1.026,1.026,0,0,1-1.028-1.024V65.184a1.026,1.026,0,0,1,2.052,0V68H59v-9.4a1.028,1.028,0,0,1,2.056,0V68h9.1v-9.4a1.026,1.026,0,1,1,2.052,0V68h1.974V56.689a3.946,3.946,0,0,0-3.94-3.941H68.6a6.29,6.29,0,0,1-5.981,0H60.971a3.953,3.953,0,0,0-3.945,3.941v3.848a1.026,1.026,0,0,1-2.052,0V56.689a6.009,6.009,0,0,1,5.414-5.965,6.257,6.257,0,0,1-1.078-3.51V41.57a3.986,3.986,0,0,1,3.975-3.975h4.639A3.979,3.979,0,0,1,71.9,41.57v5.644Zm-23.232,0a6.284,6.284,0,0,1-1.075,3.51A6.011,6.011,0,0,1,53,56.69V69.031a1.024,1.024,0,0,1-1.028,1.024H32.766a1.023,1.023,0,0,1-1.024-1.024V65.184a1.026,1.026,0,0,1,2.052,0V68h1.974v-9.4a1.026,1.026,0,1,1,2.052,0V68h9.1v-9.4a1.026,1.026,0,1,1,2.052,0V68h1.974V56.689a3.953,3.953,0,0,0-3.94-3.941H45.36a6.282,6.282,0,0,1-5.977,0H37.735a3.953,3.953,0,0,0-3.941,3.941v3.848a1.026,1.026,0,0,1-2.052,0V56.689a6,6,0,0,1,5.411-5.965,6.254,6.254,0,0,1-1.074-3.51V41.57a3.979,3.979,0,0,1,3.972-3.975h4.639a3.986,3.986,0,0,1,3.975,3.975ZM26.588,27.154H38.7a1.026,1.026,0,0,1,.923.578l2.746,4.759q1.39-2.414,2.785-4.821a1.022,1.022,0,0,1,.884-.516H58.183a1.029,1.029,0,0,1,.764.341L64,32.363l.57-4.891a1.028,1.028,0,0,1,.772-.88,12.652,12.652,0,0,0,6.38-4.546A12.556,12.556,0,0,0,61.631,2.052H23.109A12.537,12.537,0,0,0,13.017,22.046a12.664,12.664,0,0,0,6.435,4.565,1.022,1.022,0,0,1,.725.915l.562,4.837,5.112-4.922a1.068,1.068,0,0,1,.737-.287Zm11.523,2.052H26.968l-6.26,6.031a1.009,1.009,0,0,1-.632.314,1.019,1.019,0,0,1-1.133-.9l-.733-6.3a14.743,14.743,0,0,1-6.838-5.089A14.606,14.606,0,0,1,23.109,0H61.631A14.582,14.582,0,0,1,73.367,23.264a14.733,14.733,0,0,1-6.834,5.089L65.8,34.636a1.046,1.046,0,0,1-.283.609,1.023,1.023,0,0,1-1.447.027l-6.3-6.066H46.628q-1.687,2.921-3.37,5.841a1.05,1.05,0,0,1-.376.372,1.021,1.021,0,0,1-1.4-.376Q39.8,32.122,38.111,29.206Zm.291-9.441a5.841,5.841,0,0,0-1.272-3.06,8.476,8.476,0,0,1-1.823-5.038,7.063,7.063,0,0,1,14.126,0,8.5,8.5,0,0,1-1.819,5.038,5.844,5.844,0,0,0-1.272,3.06l0,2.207a2.834,2.834,0,0,1-2.82,2.82H41.218a2.827,2.827,0,0,1-2.82-2.82Zm1.955-.95h4.03a8.466,8.466,0,0,1,1.52-3.235,6.81,6.81,0,0,0,1.474-3.914,5.009,5.009,0,1,0-10.018,0,6.781,6.781,0,0,0,1.474,3.914A8.58,8.58,0,0,1,40.357,18.815Z" fill="url(#a)"/></g></svg>