<svg xmlns="http://www.w3.org/2000/svg" width="83.327" height="71" viewBox="0 0 83.327 71"><g transform="translate(0 -37.871)"><g transform="translate(18.622 78.66)"><path d="M118.959,312.682a4.549,4.549,0,0,1-4.534-4.547v-6.347a1.239,1.239,0,0,1,2.479,0v6.347a2.066,2.066,0,0,0,2.59,2l40.854-10.721a3,3,0,0,0,2.236-2.9v-6.777a1.239,1.239,0,0,1,2.479,0v6.777a5.479,5.479,0,0,1-4.086,5.3l-40.854,10.721A4.594,4.594,0,0,1,118.959,312.682Z" transform="translate(-114.425 -288.498)" fill="#365e7d"/></g><g transform="translate(0 40.763)"><g transform="translate(10.093 7.642)"><path d="M81.5,112.342a9.742,9.742,0,1,0-15.9,7.545,3.158,3.158,0,0,1,1.163,2.444v.094a10.329,10.329,0,0,0,1.48,5.327l1.412,2.346a2.394,2.394,0,0,0,4.081.034l1.454-2.326a10.331,10.331,0,0,0,1.57-5.475,3.173,3.173,0,0,1,1.172-2.452A9.721,9.721,0,0,0,81.5,112.342Z" transform="translate(-62.016 -102.6)" fill="#ffe07d"/><g transform="translate(8.112 0)"><path d="M113.35,102.6a9.694,9.694,0,0,0-1.44.128,9.741,9.741,0,0,1,4.6,17.152,3.173,3.173,0,0,0-1.172,2.452,10.329,10.329,0,0,1-1.57,5.475l-1.454,2.326a2.41,2.41,0,0,1-.456.536,2.4,2.4,0,0,0,3.6-.536l1.454-2.326a10.331,10.331,0,0,0,1.57-5.475,3.173,3.173,0,0,1,1.172-2.452,9.742,9.742,0,0,0-6.31-17.28Z" transform="translate(-111.859 -102.601)" fill="#ffd064"/></g><g transform="translate(5.089 11.733)"><path d="M97.94,181.232A1.221,1.221,0,0,1,97,180.8L93.572,176.7a1.221,1.221,0,1,1,1.872-1.569l2.5,2.978,2.5-2.978a1.221,1.221,0,1,1,1.872,1.569L98.876,180.8a1.221,1.221,0,0,1-.936.437Z" transform="translate(-93.287 -174.695)" fill="#eab14d"/></g><g transform="translate(8.521 15.828)"><path d="M115.594,212.707a1.221,1.221,0,0,1-1.221-1.221v-10.41a1.221,1.221,0,0,1,2.443,0v10.41A1.221,1.221,0,0,1,115.594,212.707Z" transform="translate(-114.373 -199.855)" fill="#eab14d"/></g><g transform="translate(5.479 24.736)"><path d="M99.949,262.474h0a4.261,4.261,0,0,1-4.261-4.261v-3.261a.365.365,0,0,1,.365-.365h7.8a.365.365,0,0,1,.365.365v3.261A4.261,4.261,0,0,1,99.949,262.474Z" transform="translate(-95.684 -254.588)" fill="#f1f4f6"/></g><g transform="translate(5.874 24.736)"><path d="M105.876,254.587h-1.711v1.547A4.263,4.263,0,0,1,98.11,260a4.263,4.263,0,0,0,8.131-1.792v-3.258A.365.365,0,0,0,105.876,254.587Z" transform="translate(-98.11 -254.587)" fill="#dfeaef"/></g></g><g transform="translate(0 16.836)"><path d="M4.727,161.534H1.221a1.221,1.221,0,1,1,0-2.443H4.727a1.221,1.221,0,1,1,0,2.443Z" transform="translate(0 -159.091)" fill="#ffd064"/></g><g transform="translate(12.112 0)"><path d="M76.883,60.978a1.221,1.221,0,0,1-1.123-.741L74.52,57.346a1.221,1.221,0,1,1,2.245-.962L78,59.276a1.222,1.222,0,0,1-1.122,1.7Z" transform="translate(-74.421 -55.644)" fill="#ffd064"/></g><g transform="translate(2.916 5.612)"><path d="M21.664,94.605a1.216,1.216,0,0,1-.766-.271L18.371,92.3a1.221,1.221,0,1,1,1.534-1.9l2.526,2.038a1.221,1.221,0,0,1-.768,2.172Z" transform="translate(-17.917 -90.125)" fill="#ffd064"/></g><g transform="translate(33.722 16.836)"><path d="M211.933,161.534h-3.506a1.221,1.221,0,0,1,0-2.443h3.506a1.221,1.221,0,1,1,0,2.443Z" transform="translate(-207.206 -159.091)" fill="#ffd064"/></g><g transform="translate(23.876)"><path d="M147.925,60.977a1.222,1.222,0,0,1-1.122-1.7l1.24-2.892a1.221,1.221,0,1,1,2.245.962l-1.239,2.892A1.221,1.221,0,0,1,147.925,60.977Z" transform="translate(-146.704 -55.642)" fill="#ffd064"/></g><g transform="translate(31.786 5.612)"><path d="M196.531,94.6a1.221,1.221,0,0,1-.768-2.172l2.526-2.038a1.221,1.221,0,1,1,1.534,1.9L197.3,94.334A1.217,1.217,0,0,1,196.531,94.6Z" transform="translate(-195.309 -90.124)" fill="#ffd064"/></g></g><g transform="translate(4.547 85.551)"><path d="M50.748,340.386H35.815a7.873,7.873,0,0,1-7.873-7.873v-.859a.814.814,0,0,1,.814-.814H57.807a.814.814,0,0,1,.814.814v.859A7.873,7.873,0,0,1,50.748,340.386Z" transform="translate(-27.942 -330.84)" fill="#407093"/></g><g transform="translate(20.848 85.551)"><path d="M141.666,330.84h-6.5a.814.814,0,0,1,.814.814v.855a7.877,7.877,0,0,1-7.877,7.877h6.5a7.877,7.877,0,0,0,7.877-7.877v-.855A.814.814,0,0,0,141.666,330.84Z" transform="translate(-128.103 -330.84)" fill="#365e7d"/></g><g transform="translate(52.648 37.871)"><g transform="translate(5.597)"><g transform="translate(0 0)"><path d="M377.372,47.613a9.742,9.742,0,1,0-15.9,7.545,3.158,3.158,0,0,1,1.164,2.444V57.7a10.329,10.329,0,0,0,1.479,5.327l1.412,2.346a2.394,2.394,0,0,0,4.081.034l1.454-2.326a10.331,10.331,0,0,0,1.57-5.475,3.173,3.173,0,0,1,1.172-2.452A9.722,9.722,0,0,0,377.372,47.613Z" transform="translate(-357.888 -37.871)" fill="#ffe07d"/></g><g transform="translate(8.112)"><path d="M409.222,37.872a9.7,9.7,0,0,0-1.44.128,9.741,9.741,0,0,1,4.6,17.152,3.173,3.173,0,0,0-1.172,2.452,10.329,10.329,0,0,1-1.57,5.475L408.187,65.4a2.408,2.408,0,0,1-.456.536,2.4,2.4,0,0,0,3.6-.536l1.454-2.326a10.331,10.331,0,0,0,1.57-5.475,3.173,3.173,0,0,1,1.172-2.452,9.742,9.742,0,0,0-6.31-17.28Z" transform="translate(-407.731 -37.871)" fill="#ffd064"/></g><g transform="translate(5.089 11.733)"><path d="M393.811,116.5a1.221,1.221,0,0,1-.936-.437l-3.432-4.095a1.221,1.221,0,1,1,1.872-1.569l2.5,2.978,2.5-2.978a1.221,1.221,0,0,1,1.872,1.569l-3.432,4.095A1.222,1.222,0,0,1,393.811,116.5Z" transform="translate(-389.159 -109.965)" fill="#eab14d"/></g><g transform="translate(8.521 15.828)"><path d="M411.465,147.978a1.221,1.221,0,0,1-1.221-1.221v-10.41a1.221,1.221,0,1,1,2.443,0v10.41A1.221,1.221,0,0,1,411.465,147.978Z" transform="translate(-410.244 -135.126)" fill="#eab14d"/></g><g transform="translate(5.479 24.736)"><path d="M395.821,197.744h0a4.261,4.261,0,0,1-4.261-4.261v-3.261a.365.365,0,0,1,.365-.365h7.8a.365.365,0,0,1,.365.365v3.261A4.261,4.261,0,0,1,395.821,197.744Z" transform="translate(-391.556 -189.858)" fill="#f1f4f6"/></g><g transform="translate(5.874 24.736)"><path d="M401.748,189.858h-1.711v1.547a4.263,4.263,0,0,1-6.055,3.868,4.263,4.263,0,0,0,8.131-1.792v-3.258a.365.365,0,0,0-.365-.365Z" transform="translate(-393.982 -189.858)" fill="#dfeaef"/></g></g><g transform="translate(0 37.157)"><path d="M346.3,275.727H331.37a7.873,7.873,0,0,1-7.873-7.873v-.859a.814.814,0,0,1,.814-.814h29.051a.814.814,0,0,1,.814.814v.859A7.873,7.873,0,0,1,346.3,275.727Z" transform="translate(-323.497 -266.181)" fill="#407093"/></g><g transform="translate(16.301 37.157)"><path d="M437.22,266.181h-6.5a.814.814,0,0,1,.814.814v.855a7.877,7.877,0,0,1-7.877,7.877h6.5a7.877,7.877,0,0,0,7.877-7.877V267A.814.814,0,0,0,437.22,266.181Z" transform="translate(-423.657 -266.181)" fill="#365e7d"/></g></g><g transform="translate(31.755 85.059)"><path d="M224.123,349.957l-2.44-1.636a17.885,17.885,0,0,1-7.516-11.049l-1.573-7.223a2.836,2.836,0,0,0-5.543,0l-1.573,7.223a17.884,17.884,0,0,1-7.516,11.049l-2.44,1.636a.913.913,0,0,0,.509,1.672h27.582A.913.913,0,0,0,224.123,349.957Z" transform="translate(-195.117 -327.817)" fill="#407093"/></g><g transform="translate(43.235 85.059)"><path d="M283.182,349.957l-2.44-1.636a17.885,17.885,0,0,1-7.516-11.049l-1.573-7.223a2.836,2.836,0,0,0-5.543,0l-.455,2.088,1.118,5.135a17.884,17.884,0,0,0,7.516,11.049l2.44,1.636a.913.913,0,0,1-.509,1.672h6.452A.913.913,0,0,0,283.182,349.957Z" transform="translate(-265.656 -327.817)" fill="#365e7d"/></g><g transform="translate(44.571 100.168)"><circle cx="1.89" cy="1.89" r="1.89" fill="#f1f4f6"/></g></g></svg>