<svg xmlns="http://www.w3.org/2000/svg" width="76.81" height="74" viewBox="0 0 76.81 74">
  <g id="_15584435541600459995" data-name="15584435541600459995" transform="translate(-4.5 -7.5)">
    <g id="Group_70" data-name="Group 70" transform="translate(17.533 16.527)">
      <g id="Group_69" data-name="Group 69">
        <path id="Path_441" data-name="Path 441" d="M114.34,109.977c.092.214.168.443.244.672a17.059,17.059,0,0,0-.535,2.2,51.716,51.716,0,0,0-.871,7.484h-23s3.8-16.786,3.956-19.7a11.34,11.34,0,0,0-.015-1.619,6.172,6.172,0,0,0-.275-1.634c-.825-2.612-4.735-11.257-3.895-16.694.825-5.437,6.17-14.082,18.4-14.082a21.722,21.722,0,0,1,5.743.748,1.2,1.2,0,0,0-.214.076,17.268,17.268,0,0,0-8.324,6.17,24.9,24.9,0,0,0-3.039,10.279c0,.244,0,.5.015.764.031,2.016.046,4.506-1.237,6.369-1.772,2.581-2.826,4.215-2.474,5.208a3.4,3.4,0,0,0,2.688,1.7,3.658,3.658,0,0,1,0,.58,8.01,8.01,0,0,1-.137,1.1l-.046.29a1.9,1.9,0,0,0,.015,1.039,1.625,1.625,0,0,0,.809.7.821.821,0,0,0-.29.321,1.075,1.075,0,0,0-.015,1.054,1.717,1.717,0,0,0,.565.657,5.2,5.2,0,0,0,.672.458c.458.29.886.55.932.871a5.293,5.293,0,0,1-.229,1.222c-.046.214-.107.428-.153.641a3.242,3.242,0,0,0,.29,2.826,6.362,6.362,0,0,0,4.6,1.65,8.645,8.645,0,0,0,2.016-.244A19.777,19.777,0,0,0,114.34,109.977Z" transform="translate(-89.83 -66.6)" fill="#87b90e"/>
      </g>
    </g>
    <g id="Group_73" data-name="Group 73" transform="translate(27.341 17.748)">
      <g id="Group_72" data-name="Group 72">
        <g id="Group_71" data-name="Group 71">
          <path id="Path_442" data-name="Path 442" d="M184.785,102.795c-.275.764-1.512,1.344-2.658,1.466a.9.9,0,0,0-.031.214,3.392,3.392,0,0,0-.031.794c.031.5.137,1.008.2,1.436a2.047,2.047,0,0,1,.015.809c-.168.4-1.176.764-1.8.916,1.13.092,1.6.489,1.3,1.161a1.481,1.481,0,0,1-.428.5c-.657.519-1.7.871-1.772,1.634a9.1,9.1,0,0,0,.382,2,2.785,2.785,0,0,1-.214,2.444c-.977,1.13-3.513,1.894-6.186,1.283a17.868,17.868,0,0,1-4-1.222.664.664,0,0,1-.107-.061l-.092-.183a.427.427,0,0,0-.26-.229.458.458,0,0,0-.351.046l-.092.046h-.015a17.2,17.2,0,0,1-3.895,1.176c-2.49.58-4.888-.122-5.758-1.13-.4-.458-.275-1.3-.107-2.062.046-.214.107-.428.153-.626a5.2,5.2,0,0,0,.244-1.512c-.076-.764-.748-1.176-1.329-1.543a5.766,5.766,0,0,1-.6-.4.993.993,0,0,1-.305-.336c-.031-.061-.076-.168-.031-.244.015-.031.153-.229.978-.305a.427.427,0,0,0,.4-.4.459.459,0,0,0-.336-.458,3.669,3.669,0,0,1-1.5-.641,1.858,1.858,0,0,1,.046-.58l.046-.29c.061-.367.122-.779.153-1.176a3.852,3.852,0,0,0-.015-.855.9.9,0,0,0-.076-.305.409.409,0,0,0-.367-.29c-1.069-.107-2.092-.641-2.276-1.176-.229-.641,1.268-2.81,2.367-4.414,1.436-2.092,1.42-4.735,1.39-6.873-.015-.26-.015-.519-.015-.764a24.226,24.226,0,0,1,2.887-9.79,16.289,16.289,0,0,1,7.9-5.834c.443-.153.886-.305,1.344-.428a16.9,16.9,0,0,1,8.171,6.018,24.574,24.574,0,0,1,2.963,10.035c0,2.169-.229,5.162,1.314,7.392C183.914,100.229,185.075,102,184.785,102.795Z" transform="translate(-154.046 -74.6)" fill="#87b90e"/>
        </g>
      </g>
    </g>
    <g id="Group_76" data-name="Group 76" transform="translate(41.813 16.084)">
      <g id="Group_75" data-name="Group 75">
        <g id="Group_74" data-name="Group 74">
          <path id="Path_443" data-name="Path 443" d="M270.626,98.157c.137,2.841,3.91,19.015,3.94,19.184a.451.451,0,0,1-.428.535H251.152c-.137,0-.26.107-.351,0a1,1,0,0,1-.076-.565,54.349,54.349,0,0,0-.886-6.858,18.011,18.011,0,0,0-.565-2.276,9.275,9.275,0,0,1,.473-1.252,16.732,16.732,0,0,1,.962,3.391c.7,4.338,1.207,5.514.978,6.69H273.6c-.642-3.055-3.711-16.144-3.849-18.8a12.009,12.009,0,0,1,.015-1.665,6.538,6.538,0,0,1,.29-1.726c.153-.489.412-1.191.748-2.062,1.329-3.543,3.8-10.126,3.146-14.449-.84-5.514-6.323-13.731-17.977-13.731a21.288,21.288,0,0,0-5.743.764c-.458-.168-.932-.321-1.436-.458a21.193,21.193,0,0,1,7.179-1.176c12.219,0,17.946,8.645,18.832,14.464.7,4.536-1.726,11.012-3.192,14.876-.321.84-.565,1.527-.733,2.016a6.307,6.307,0,0,0-.26,1.527A13.489,13.489,0,0,0,270.626,98.157Z" transform="translate(-248.8 -63.7)" fill="#77d0de"/>
        </g>
      </g>
    </g>
    <g id="Group_90" data-name="Group 90" transform="translate(4.5 41.147)">
      <g id="Group_79" data-name="Group 79" transform="translate(0)">
        <g id="Group_78" data-name="Group 78">
          <g id="Group_77" data-name="Group 77">
            <path id="Path_444" data-name="Path 444" d="M12.2,227.8c4.246,0,7.7,2.81,7.7,6.277a5.865,5.865,0,0,1-2.474,4.613L18.17,242l-3.406-2a9.3,9.3,0,0,1-2.566.367c-4.246,0-7.7-2.81-7.7-6.277C4.515,230.626,7.952,227.8,12.2,227.8Z" transform="translate(-4.5 -227.8)" fill="#dfdfdf"/>
          </g>
        </g>
      </g>
      <g id="Group_89" data-name="Group 89" transform="translate(2.917 5.437)">
        <g id="Group_82" data-name="Group 82">
          <g id="Group_81" data-name="Group 81">
            <g id="Group_80" data-name="Group 80">
              <path id="Path_445" data-name="Path 445" d="M25.647,264.423a1.023,1.023,0,1,1-1.023-1.023A1.023,1.023,0,0,1,25.647,264.423Z" transform="translate(-23.6 -263.4)" fill="#606466"/>
            </g>
          </g>
        </g>
        <g id="Group_85" data-name="Group 85" transform="translate(3.773)">
          <g id="Group_84" data-name="Group 84">
            <g id="Group_83" data-name="Group 83">
              <path id="Path_446" data-name="Path 446" d="M50.347,264.423a1.023,1.023,0,1,1-1.023-1.023A1.023,1.023,0,0,1,50.347,264.423Z" transform="translate(-48.3 -263.4)" fill="#606466"/>
            </g>
          </g>
        </g>
        <g id="Group_88" data-name="Group 88" transform="translate(7.53)">
          <g id="Group_87" data-name="Group 87">
            <g id="Group_86" data-name="Group 86">
              <path id="Path_447" data-name="Path 447" d="M74.947,264.423a1.023,1.023,0,1,1-1.023-1.023A1.023,1.023,0,0,1,74.947,264.423Z" transform="translate(-72.9 -263.4)" fill="#606466"/>
            </g>
          </g>
        </g>
      </g>
    </g>
    <g id="Group_104" data-name="Group 104" transform="translate(59.989 23.827)">
      <g id="Group_93" data-name="Group 93">
        <g id="Group_92" data-name="Group 92">
          <g id="Group_91" data-name="Group 91">
            <path id="Path_448" data-name="Path 448" d="M377.285,114.4c-5.239,0-9.485,3.467-9.485,7.744a7.163,7.163,0,0,0,3.055,5.682l-.916,4.093,4.2-2.474a11.216,11.216,0,0,0,3.162.443c5.239,0,9.485-3.467,9.485-7.744C386.77,117.882,382.524,114.4,377.285,114.4Z" transform="translate(-367.8 -114.4)" fill="#dfdfdf"/>
          </g>
        </g>
      </g>
      <g id="Group_103" data-name="Group 103" transform="translate(3.101 4.475)">
        <g id="Group_96" data-name="Group 96">
          <g id="Group_95" data-name="Group 95">
            <g id="Group_94" data-name="Group 94">
              <rect id="Rectangle_68" data-name="Rectangle 68" width="12.769" height="1.008" fill="#606466"/>
            </g>
          </g>
        </g>
        <g id="Group_99" data-name="Group 99" transform="translate(0 2.551)">
          <g id="Group_98" data-name="Group 98">
            <g id="Group_97" data-name="Group 97">
              <rect id="Rectangle_69" data-name="Rectangle 69" width="12.769" height="1.008" fill="#606466"/>
            </g>
          </g>
        </g>
        <g id="Group_102" data-name="Group 102" transform="translate(0 5.086)">
          <g id="Group_101" data-name="Group 101">
            <g id="Group_100" data-name="Group 100">
              <rect id="Rectangle_70" data-name="Rectangle 70" width="8.019" height="1.008" fill="#606466"/>
            </g>
          </g>
        </g>
      </g>
    </g>
    <g id="Group_112" data-name="Group 112" transform="translate(24.63 43.79)">
      <g id="Group_107" data-name="Group 107" transform="translate(4.923 0)">
        <g id="Group_106" data-name="Group 106">
          <g id="Group_105" data-name="Group 105">
            <path id="Path_449" data-name="Path 449" d="M183.281,282.81a36.675,36.675,0,0,1-14.311-2.871.712.712,0,0,1,.55-1.314,35.582,35.582,0,0,0,49.333-32.807.718.718,0,0,1,1.436,0A37.047,37.047,0,0,1,183.281,282.81Z" transform="translate(-168.531 -245.1)" fill="#606466"/>
          </g>
        </g>
      </g>
      <g id="Group_111" data-name="Group 111" transform="translate(0 31.311)">
        <g id="Group_110" data-name="Group 110">
          <g id="Group_109" data-name="Group 109">
            <g id="Group_108" data-name="Group 108">
              <path id="Path_450" data-name="Path 450" d="M144.135,451.78,136.3,450.1l5.941,5.376Z" transform="translate(-136.3 -450.1)" fill="#606466"/>
            </g>
          </g>
        </g>
      </g>
    </g>
    <g id="Group_120" data-name="Group 120" transform="translate(7.908 7.5)">
      <g id="Group_115" data-name="Group 115" transform="translate(0 0)">
        <g id="Group_114" data-name="Group 114">
          <g id="Group_113" data-name="Group 113">
            <path id="Path_451" data-name="Path 451" d="M27.529,38.536a.423.423,0,0,1-.137-.015.708.708,0,0,1-.565-.825A37.027,37.027,0,0,1,81.306,12.22a.718.718,0,1,1-.7,1.252,35.594,35.594,0,0,0-52.373,24.5A.721.721,0,0,1,27.529,38.536Z" transform="translate(-26.813 -7.5)" fill="#606466"/>
          </g>
        </g>
      </g>
      <g id="Group_119" data-name="Group 119" transform="translate(51.821 2.826)">
        <g id="Group_118" data-name="Group 118" transform="translate(0)">
          <g id="Group_117" data-name="Group 117">
            <g id="Group_116" data-name="Group 116">
              <path id="Path_452" data-name="Path 452" d="M366.1,29.452,373.691,32l-5.3-6Z" transform="translate(-366.1 -26)" fill="#606466"/>
            </g>
          </g>
        </g>
      </g>
    </g>
  </g>
</svg>
