<svg id="Layer_x0020_1" xmlns="http://www.w3.org/2000/svg" width="63.837" height="65.576" viewBox="0 0 63.837 65.576">
  <path id="Path_409" data-name="Path 409" d="M47.181,231.3h61.874a1,1,0,0,1,.981.981v1a1,1,0,0,1-.981.981H47.181a.969.969,0,0,1-.981-.981v-1A.969.969,0,0,1,47.181,231.3Z" transform="translate(-46.2 -192.531)" fill="#1a1a1a"/>
  <path id="Path_410" data-name="Path 410" d="M47.181,41.7h61.874a1,1,0,0,1,.981.981V43.7a.982.982,0,0,1-.981.981H47.181A.982.982,0,0,1,46.2,43.7V42.681A.982.982,0,0,1,47.181,41.7Z" transform="translate(-46.2 -41.7)" fill="#1a1a1a"/>
  <path id="Path_411" data-name="Path 411" d="M113.773,251.583h-3.517L86.885,228.212a1.814,1.814,0,0,0-2.576,0L60.937,251.583H57.42a1.82,1.82,0,1,0,0,3.64h8.547a1.824,1.824,0,0,0,1.82-1.82,1.844,1.844,0,0,0-1.7-1.82L83.777,233.9v17.667H81.323a1.82,1.82,0,0,0,0,3.64H89.87a1.82,1.82,0,0,0,0-3.64H87.416V233.9L105.1,251.583a1.822,1.822,0,0,0,.123,3.64h8.547a1.82,1.82,0,1,0,0-3.64Z" transform="translate(-53.678 -189.648)" fill="#1a1a1a"/>
  <path id="Path_412" data-name="Path 412" d="M74.438,70.1a3.626,3.626,0,0,0,3.619-3.619H74.438v-3.6a3.609,3.609,0,1,0,0,7.218Zm38.2-8.056L101.98,71.431c-.02.02-.061.02-.061.041a1.766,1.766,0,0,1-.327.2l-.123.061a1.268,1.268,0,0,1-.47.082h0a1.791,1.791,0,0,1-.552-.123c-.041-.02-.061-.02-.1-.041-.02-.02-.061-.02-.082-.041L98.177,70.47,87.3,80.346l-.02.02a.02.02,0,0,0-.02.02,1.556,1.556,0,0,1-.389.245l-.123.061a1.268,1.268,0,0,1-.47.082h0a1.536,1.536,0,0,1-.532-.1,1,1,0,0,0-.143-.061c-.061-.02-.082-.041-.143-.061L82.9,78.976l-10.858,9.3a1.5,1.5,0,0,1-.981.368,1.558,1.558,0,0,1-1.166-.532,1.523,1.523,0,0,1,.164-2.147L81.778,75.93c.02-.02.041-.02.061-.041a1.249,1.249,0,0,1,.286-.143l.245-.123a1.35,1.35,0,0,1,.286-.02c.1,0,.184-.02.286-.02a1.9,1.9,0,0,1,.266.082,1.919,1.919,0,0,1,.307.123.075.075,0,0,1,.061.02l2.536,1.554,10.858-9.856c.02-.02.02-.02.041-.02a3.027,3.027,0,0,1,.266-.164,1.375,1.375,0,0,1,.245-.123c.082-.02.164-.02.245-.041a.885.885,0,0,1,.327-.02.922.922,0,0,1,.225.061,1.01,1.01,0,0,1,.327.1c.02,0,.041,0,.041.02l2.106,1.166,9.835-8.67a1.539,1.539,0,0,1,2.147.123,1.475,1.475,0,0,1-.143,2.106ZM74.417,61.6v-.082H74.6a1.548,1.548,0,0,1,.307.02c.082,0,.184.02.266.02a4.755,4.755,0,0,1,.573.1c.143.041.266.082.389.123A4.813,4.813,0,0,1,79.12,64.7a5.733,5.733,0,0,1,.184.634c.02.082.041.2.061.327a4.316,4.316,0,0,1,.041.532v.348h-.082A4.887,4.887,0,1,1,74.417,61.6ZM64.5,56.3V92.083h56.354V56.3Z" transform="translate(-60.758 -53.315)" fill="#1a1a1a"/>
</svg>
