<svg xmlns="http://www.w3.org/2000/svg" xmlns:xlink="http://www.w3.org/1999/xlink" width="43.197" height="74.171" viewBox="0 0 43.197 74.171"><defs><linearGradient id="a" x1="0.5" x2="0.5" y2="1" gradientUnits="objectBoundingBox"><stop offset="0" stop-color="#9fc937"/><stop offset="1" stop-color="#50651c"/></linearGradient></defs><path d="M7.677,0H35.519A7.676,7.676,0,0,1,43.2,7.683v58.8a7.676,7.676,0,0,1-7.677,7.683H7.677A7.676,7.676,0,0,1,0,66.488V7.683A7.694,7.694,0,0,1,2.251,2.251,7.611,7.611,0,0,1,7.677,0ZM25.9,45.617H26a1.435,1.435,0,0,1,1.424,1.424v9.144h.923V52.353a1.329,1.329,0,0,1,1.322-1.322h.1A1.435,1.435,0,0,1,31.2,52.455v3.827l.048-.018h1V53.355a1.329,1.329,0,0,1,1.322-1.322h.1a1.435,1.435,0,0,1,1.424,1.424v2.662h.006l.99-.012V54.224A1.329,1.329,0,0,1,37.4,52.9h.1a1.435,1.435,0,0,1,1.424,1.424v3.99a.612.612,0,0,1-.012.145l.048.036a20.142,20.142,0,0,1-.187,3.839h2.233V11.908H2.179V62.323h21.4l-4.672-7.4c-.29-.682-.253-1.141.036-1.443,1.249-.815,3.3.917,5.565,3.362l.084-.018v-9.9A1.329,1.329,0,0,1,25.917,45.6l-.018.018Zm.857-3.821a.7.7,0,1,1-1.4,0V38.978a.7.7,0,1,1,1.4,0V41.8Zm-6.362,5.776a.7.7,0,0,1,0,1.4H17.576a.7.7,0,0,1,0-1.4Zm2-4.177a.7.7,0,0,1-.99.99l-1.986-1.992a.7.7,0,0,1,.99-.99L22.392,43.4Zm9.186,5.571a.7.7,0,1,1,0-1.4H34.4a.7.7,0,0,1,0,1.4Zm-1-4.738a.7.7,0,0,1-.99-.99l1.986-1.992a.7.7,0,1,1,.99.99l-1.986,1.992Zm-23.5-4.69h4.3A1.965,1.965,0,0,1,13.339,41.5v4.3a1.965,1.965,0,0,1-1.962,1.962h-4.3A1.965,1.965,0,0,1,5.112,45.8V41.5a1.965,1.965,0,0,1,1.962-1.962ZM31.826,27.233h4.3a1.965,1.965,0,0,1,1.962,1.962v4.3a1.965,1.965,0,0,1-1.962,1.962h-4.3A1.965,1.965,0,0,1,29.864,33.5v-4.3a1.969,1.969,0,0,1,1.962-1.962Zm-12.379,0h4.3a1.965,1.965,0,0,1,1.962,1.962v4.3a1.965,1.965,0,0,1-1.962,1.962h-4.3A1.965,1.965,0,0,1,17.485,33.5v-4.3a1.969,1.969,0,0,1,1.962-1.962Zm-12.373,0h4.3a1.965,1.965,0,0,1,1.962,1.962v4.3a1.965,1.965,0,0,1-1.962,1.962h-4.3A1.965,1.965,0,0,1,5.112,33.5v-4.3a1.962,1.962,0,0,1,1.962-1.962ZM31.826,14.926h4.3a1.965,1.965,0,0,1,1.962,1.962v4.3a1.965,1.965,0,0,1-1.962,1.962h-4.3a1.965,1.965,0,0,1-1.962-1.962v-4.3a1.969,1.969,0,0,1,1.962-1.962Zm-12.379,0h4.3a1.965,1.965,0,0,1,1.962,1.962v4.3a1.965,1.965,0,0,1-1.962,1.962h-4.3a1.965,1.965,0,0,1-1.962-1.962v-4.3a1.969,1.969,0,0,1,1.962-1.962Zm-12.373,0h4.3a1.965,1.965,0,0,1,1.962,1.962v4.3a1.965,1.965,0,0,1-1.962,1.962h-4.3a1.965,1.965,0,0,1-1.962-1.962v-4.3a1.962,1.962,0,0,1,1.962-1.962Zm14.516,49.8a3.163,3.163,0,1,1-3.163,3.163,3.158,3.158,0,0,1,3.163-3.163Z" transform="translate(0)" fill-rule="evenodd" fill="url(#a)"/></svg>