<svg xmlns="http://www.w3.org/2000/svg" xmlns:xlink="http://www.w3.org/1999/xlink" width="50.751" height="72.694" viewBox="0 0 50.751 72.694"><defs><linearGradient id="a" x1="0.5" x2="0.5" y2="1" gradientUnits="objectBoundingBox"><stop offset="0" stop-color="#9fc937"/><stop offset="1" stop-color="#50651c"/></linearGradient></defs><path d="M35.773,53.035l2.3-11.707,2.337,3.52c5.028-2.017,7.856-5.348,8.276-10.477,4.129,7.223,1.621,13.7-3.615,17.493l2.384,3.591-11.684-2.42ZM5.762,46.054,3.7,57.726a.864.864,0,0,1-.2.42,6.555,6.555,0,0,0-1.331,2.42A1.194,1.194,0,0,0,2.5,61.749L10.554,69.8a3.437,3.437,0,0,0,1.816.929,6.109,6.109,0,0,0,2.721-.219c.018,0,.041-.006.059-.006.4-.106.911-.237,1.408-.355,2.159-.527,4.04-.988,5.786-2.567l2.248-2.343a.77.77,0,0,1,.089-.106c.03-.03.248-.248.55-.532,1.538-1.5,3.437-3.354,2.278-4.981l-.9-.9c-.438.42-.9.834-1.343,1.23-.4.355-.787.686-1.13,1.035a.95.95,0,0,1-1.343-1.343c.349-.349.775-.728,1.219-1.124,1.52-1.343,3.266-2.875,2.325-4.218l-.887-.887a1.7,1.7,0,0,1-.13-.16c-.509.527-1.077,1.029-1.627,1.509-.4.355-.787.686-1.13,1.035a.95.95,0,0,1-1.343-1.343c.349-.349.775-.728,1.219-1.124,1.52-1.343,3.266-2.875,2.331-4.218l-.887-.887a.958.958,0,0,1-.154-.2l-2.609,2.609a.95.95,0,0,1-1.343-1.343L24.669,44.4a3.281,3.281,0,0,0,1.13-3.313,2.311,2.311,0,0,0-.532-.876,2.164,2.164,0,0,0-.408-.319h-.006c-.071.035-.124-.041-.2-.106a1.784,1.784,0,0,0-.266-.106,3.1,3.1,0,0,0-2.94.822.092.092,0,0,1-.047.035c-.118.1-.231.207-.349.319L10.909,51.012A.95.95,0,0,1,9.477,49.77L5.762,46.054Zm6.43.988.325-.325,6.7-6.7a6.669,6.669,0,0,1-1.911-1.343,6.521,6.521,0,1,1,9.223,0l-.065.065c.053.047.1.095.148.142a4.327,4.327,0,0,1,.55.68l8.312-8.312s-1.278-3.354,0-4.632l-6.194-6.2a3.278,3.278,0,0,1-4.632,0L7.424,37.642a3.278,3.278,0,0,1,0,4.632l4.768,4.768ZM26.8,44.836a7.413,7.413,0,0,1-.787.923l-.976.976-.006-.024a.958.958,0,0,1,.2.154l.929.929a1.335,1.335,0,0,1,.136.172,3.193,3.193,0,0,1,.172,3.869.942.942,0,0,1,.349.219l.929.929a1.335,1.335,0,0,1,.136.172,3.246,3.246,0,0,1,0,4.123.8.8,0,0,1,.112.095l.929.929a1.335,1.335,0,0,1,.136.172c2.159,2.952-.414,5.454-2.479,7.478l-.532.532-2.3,2.42-.071.071c-2.112,1.917-4.206,2.425-6.62,3.017-.4.095-.816.2-1.384.349-.018,0-.024.006-.041.006a8.08,8.08,0,0,1-3.567.248,5.245,5.245,0,0,1-2.8-1.449L1.225,63.1a2.987,2.987,0,0,1-.864-2.9,7.638,7.638,0,0,1,1.55-3.041L4.058,44.984v-.047c.024-.148.053-.319.083-.5L0,40.3,27.331,12.967,43,28.638l-16.2,16.2ZM21.208,2.42l-2.3,11.707-2.337-3.52c-5.028,2.017-7.856,5.348-8.276,10.471-4.135-7.223-1.621-13.7,3.615-17.493L9.524,0,21.208,2.42Z" fill-rule="evenodd" fill="url(#a)"/></svg>