<svg xmlns="http://www.w3.org/2000/svg" width="47.404" height="53.932" viewBox="0 0 47.404 53.932">
  <g id="_2062002861579680337" data-name="2062002861579680337" transform="translate(-19.214 -8.692)">
    <path id="Path_416" data-name="Path 416" d="M81.383,24.734c0,7.755-6.673,14.042-14.9,14.042s-14.9-6.287-14.9-14.042,6.673-14.042,14.9-14.042,14.9,6.287,14.9,14.042" transform="translate(-23.562 -1.456)" fill="#a3dd19"/>
    <path id="Path_417" data-name="Path 417" d="M65.022,37.865c-8.519,0-15.449-6.543-15.449-14.586S56.5,8.692,65.022,8.692,80.47,15.235,80.47,23.278,73.54,37.865,65.022,37.865m0-28.085c-7.919,0-14.361,6.055-14.361,13.5s6.442,13.5,14.361,13.5,14.361-6.056,14.361-13.5-6.442-13.5-14.361-13.5" transform="translate(-22.106)" fill="#10003b"/>
    <path id="Path_418" data-name="Path 418" d="M66.3,138.692H22.447a1.232,1.232,0,0,1-1.232-1.232v-.394a23.158,23.158,0,0,1,46.316,0v.394a1.232,1.232,0,0,1-1.232,1.232" transform="translate(-1.457 -76.612)" fill="#94c95e"/>
    <path id="Path_419" data-name="Path 419" d="M64.842,137.779H20.99A1.778,1.778,0,0,1,19.214,136v-.394a23.7,23.7,0,0,1,47.4,0V136a1.778,1.778,0,0,1-1.776,1.775M42.916,113A22.64,22.64,0,0,0,20.3,135.61V136a.689.689,0,0,0,.688.688H64.842A.689.689,0,0,0,65.53,136v-.394A22.64,22.64,0,0,0,42.916,113" transform="translate(0 -75.156)" fill="#10003b"/>
    <path id="Path_420" data-name="Path 420" d="M46.107,140.447a.544.544,0,0,1-.439-.864,20.112,20.112,0,0,1,6.2-5.583.544.544,0,1,1,.545.941,19.3,19.3,0,0,0-5.864,5.283.544.544,0,0,1-.44.223" transform="translate(-19.186 -91.188)" fill="#10003b"/>
    <rect id="Rectangle_65" data-name="Rectangle 65" width="10.573" height="3.074" transform="translate(46.119 46.19)" fill="#fe7058"/>
    <path id="Path_421" data-name="Path 421" d="M127.3,148.785H116.723a.544.544,0,0,1-.544-.544v-3.074a.544.544,0,0,1,.544-.544H127.3a.544.544,0,0,1,.544.544v3.074a.544.544,0,0,1-.544.544M117.266,147.7h9.486V145.71h-9.486Z" transform="translate(-70.604 -98.977)" fill="#10003b"/>
  </g>
</svg>
