<svg id="_5a5b8a826b0fff9ada53f2107ee553cc" data-name="5a5b8a826b0fff9ada53f2107ee553cc" xmlns="http://www.w3.org/2000/svg" width="43.089" height="67.82" viewBox="0 0 43.089 67.82">
  <path id="Path_6" data-name="Path 6" d="M227.54,10h-34.6a4.244,4.244,0,0,0-4.242,4.249V73.572a4.248,4.248,0,0,0,4.242,4.249h34.6a4.25,4.25,0,0,0,4.249-4.249V14.249A4.259,4.259,0,0,0,227.54,10Zm2.193,65.977h-38.9V11.8h38.9V75.977ZM210.241,64.458a3.052,3.052,0,1,0,3.052,3.052A3.052,3.052,0,0,0,210.241,64.458Zm-12.573-10.02c.782,0,0-.637,0-1.419V24.5h25.146v6.034c0,.782-.782,1.419,0,1.419a1.415,1.415,0,0,0,1.412-1.419V24.5a1.419,1.419,0,0,0-1.412-1.419H197.668a1.415,1.415,0,0,0-1.412,1.419V53.02A1.415,1.415,0,0,0,197.668,54.438Zm0,6.373h25.146a1.415,1.415,0,0,0,1.412-1.419V37.361a1.419,1.419,0,0,0-1.412-1.419c-.782,0,0,1.137,0,1.919V59.794H197.668c-.782,0-1.412-1.176-1.412-.4A1.41,1.41,0,0,0,197.668,60.812Zm8.3-40.723h8.546a1.415,1.415,0,0,0,0-2.83h-8.546a1.415,1.415,0,0,0,0,2.83Z" transform="translate(-188.7 -10)" fill="#416a77"/>
</svg>
