<svg xmlns="http://www.w3.org/2000/svg" width="33.15" height="36.163" viewBox="0 0 33.15 36.163"><g transform="translate(-138.6 -127.971)"><path d="M157.739,150.788l-17.656,17.331a3.814,3.814,0,0,1-1.483-3.008v-28.6a3.733,3.733,0,0,1,1.483-3.008Z" transform="translate(0 -4.748)" fill="#fff"/><path d="M288.026,217.17a3.811,3.811,0,0,1-1.935,3.319l-5.551,3.079L274,217.184l6.54-6.384,5.551,3.107A3.7,3.7,0,0,1,288.026,217.17Z" transform="translate(-116.276 -71.13)" fill="#ffc107"/><path d="M173.3,262.384l-20.127,11.243a3.812,3.812,0,0,1-1.808.452,3.43,3.43,0,0,1-1.864-.508,3.68,3.68,0,0,1-.4-.24L166.756,256Z" transform="translate(-9.017 -109.945)" fill="#f44336"/><path d="M173.3,139.656l-6.54,6.384-17.656-17.3a3.681,3.681,0,0,1,.4-.24,3.635,3.635,0,0,1,3.672-.056Z" transform="translate(-9.017)" fill="#4caf50"/></g></svg>