<svg xmlns="http://www.w3.org/2000/svg" width="105.521" height="62.991" viewBox="0 0 105.521 62.991">
  <g id="_10690271411582956841" data-name="10690271411582956841" transform="translate(0 0)">
    <path id="Path_406" data-name="Path 406" d="M22.6,64.358H21.167V32.2H91.8V43.047H84.1l10.436,13.14,10.436-13.14h-7.7V29.473a2.731,2.731,0,0,0-2.731-2.731h-76.1A2.731,2.731,0,0,0,15.7,29.473V64.358H14.275A12.688,12.688,0,0,0,1.587,77.045h0A12.688,12.688,0,0,0,14.275,89.733H22.6A12.688,12.688,0,0,0,35.284,77.045h0A12.688,12.688,0,0,0,22.6,64.358Z" transform="translate(-1.587 -26.742)" fill="#2d3e50"/>
    <path id="Path_407" data-name="Path 407" d="M76.889,71.24H55.29a5.412,5.412,0,0,0-5.406,5.406V90.96a5.412,5.412,0,0,0,5.406,5.406h21.6a5.412,5.412,0,0,0,5.406-5.406V76.645A5.412,5.412,0,0,0,76.889,71.24Zm2.492,19.72a2.5,2.5,0,0,1-2.492,2.492H55.29A2.5,2.5,0,0,1,52.8,90.96V76.645a2.5,2.5,0,0,1,2.492-2.492h21.6a2.5,2.5,0,0,1,2.492,2.492Z" transform="translate(-9.057 -33.624)" fill="#1d75b8"/>
    <rect id="Rectangle_64" data-name="Rectangle 64" width="25.151" height="25.151" rx="12.576" transform="translate(80.369 37.615)" fill="#1d75b8"/>
  </g>
</svg>
