<svg xmlns="http://www.w3.org/2000/svg" width="71.507" height="59.198" viewBox="0 0 71.507 59.198">
  <g id="_18363777811582955606" data-name="18363777811582955606" transform="translate(-1.401 -12.176)">
    <path id="Path_439" data-name="Path 439" d="M70.593,35.315a13.35,13.35,0,0,1-4.144-2.586c-3.2-2.884-6.136-6.136-9.267-9.14-5.817-5.575-12.613-9.6-20.669-10.94a33.794,33.794,0,0,0-12.222.176A28.118,28.118,0,0,0,6.8,24.177c-.077.116-.16.237-.237.358a22.033,22.033,0,0,0-2.553,5.228A20.3,20.3,0,0,0,2.983,36.1c0,.149,0,.3.006.446A46.83,46.83,0,0,0,3.56,43.19c.041.245.133.732.133.732s.6-1.075.752-1.307a11.915,11.915,0,0,1,21.848,6.579V50.25a4.2,4.2,0,0,1,3.137,4.05v8.365q1.659.149,3.362.149h.028a62.877,62.877,0,0,0,7.688-.237l.671.947,1.585,2.229c.479.759.98,1.5,1.513,2.212.171.22.341.44.517.66H57.837l-1.766-9a1.175,1.175,0,0,1,.259-.2c.149-.05.3-.1.451-.16.022,0,.039-.006.061-.006,10.021-2.537,15-9.839,16.746-11.727V36.383C73.493,36.383,70.791,35.392,70.593,35.315ZM57.16,40.477a3.563,3.563,0,1,1,3.56-3.56,3.563,3.563,0,0,1-3.56,3.56Z" transform="translate(-0.678)" fill="#2d3e50"/>
    <path id="Path_440" data-name="Path 440" d="M24.57,73.777H22.883l-.016,0V70.1A9.179,9.179,0,0,0,13.7,60.932v0A9.179,9.179,0,0,0,4.533,70.1v3.675l-.016,0H2.83A1.429,1.429,0,0,0,1.4,75.2V90.85A1.43,1.43,0,0,0,2.83,92.279H13.7v0H24.57A1.43,1.43,0,0,0,26,90.853V75.206a1.429,1.429,0,0,0-1.429-1.429Zm-9.308,9.476-.222.175v3l0,.018a1.285,1.285,0,0,1-.657,1.177,1.516,1.516,0,0,1-.685.164v0a1.516,1.516,0,0,1-.687-.164,1.285,1.285,0,0,1-.657-1.177l0-.018v-3l-.222-.175a2.364,2.364,0,0,1-.909-1.922,2.488,2.488,0,0,1,2.023-2.39h0a2.354,2.354,0,0,1,.444-.046v0a2.354,2.354,0,0,1,.446.047h0a2.488,2.488,0,0,1,2.023,2.39,2.364,2.364,0,0,1-.909,1.922Zm4.272-9.476H13.7v0H7.866V70.1A5.843,5.843,0,0,1,13.7,64.262v0A5.843,5.843,0,0,1,19.534,70.1Z" transform="translate(0 -20.908)" fill="#87b90e"/>
  </g>
</svg>
