<svg xmlns="http://www.w3.org/2000/svg" xmlns:xlink="http://www.w3.org/1999/xlink" width="102.878" height="102.878" viewBox="0 0 102.878 102.878"><defs><linearGradient id="a" x1="0.233" y1="0.133" x2="0.5" y2="1" gradientUnits="objectBoundingBox"><stop offset="0" stop-color="#9fc937"/><stop offset="1" stop-color="#50651c"/></linearGradient><linearGradient id="b" x1="0.5" y1="0" xlink:href="#a"/></defs><g transform="translate(0 0)"><path d="M102.878,51.362A51.446,51.446,0,0,1,56.811,102.6a1.837,1.837,0,0,1-2.025-1.827A17.164,17.164,0,0,0,37.623,83.609H11.3a51.44,51.44,0,1,1,91.579-32.248Z" transform="translate(0 0.001)" fill="url(#a)"/><path d="M364.915,145.58v21.512a2.009,2.009,0,0,1-2.009,2.009h-28.9A2.009,2.009,0,0,1,332,167.092V145.58a2.009,2.009,0,0,1,2.009-2.009h28.9A2.009,2.009,0,0,1,364.915,145.58Z" transform="translate(-265.29 -114.722)" fill="#527108"/><path d="M469.683,145.58v21.512a2.009,2.009,0,0,1-2.009,2.009h-6.622a2.009,2.009,0,0,1-2.009-2.009V145.58a2.009,2.009,0,0,1,2.009-2.009h6.622A2.009,2.009,0,0,1,469.683,145.58Z" transform="translate(-366.805 -114.722)" fill="#9fc937"/><path d="M236.306,14.028V86.364a6.028,6.028,0,0,1-6.028,6.028h-10.75a6.028,6.028,0,0,1-6.028-6.028V14.028A6.028,6.028,0,0,1,219.528,8h10.75A6.028,6.028,0,0,1,236.306,14.028Z" transform="translate(-170.601 -6.392)" fill="#5b7320"/><path d="M292.264,14.528V86.864a6.028,6.028,0,0,1-6.028,6.028H263.028A6.028,6.028,0,0,1,257,86.864V14.528A6.028,6.028,0,0,1,263.028,8.5h23.208A6.028,6.028,0,0,1,292.264,14.528Z" transform="translate(-205.36 -6.792)" fill="#94c95e"/><path d="M246.626,8.379V7.535A7.543,7.543,0,0,0,239.091,0H207.142a7.543,7.543,0,0,0-7.535,7.535v.844A2.01,2.01,0,0,0,198,10.348V15.6a2.01,2.01,0,0,0,1.607,1.969V19.2A2.01,2.01,0,0,0,198,21.168v5.255a2.01,2.01,0,0,0,1.607,1.969V79.871a7.543,7.543,0,0,0,7.535,7.535h31.948a7.543,7.543,0,0,0,7.535-7.535V20.355a2.01,2.01,0,0,0,1.607-1.969V10.348a2.01,2.01,0,0,0-1.607-1.969Zm-3.014,71.492a4.526,4.526,0,0,1-4.521,4.521H207.142a4.526,4.526,0,0,1-4.521-4.521V7.535a4.526,4.526,0,0,1,4.521-4.521h9.946V4.32A2.009,2.009,0,0,0,219.1,6.329h8.037a2.009,2.009,0,0,0,2.009-2.009V3.014h9.946a4.526,4.526,0,0,1,4.521,4.521Z" transform="translate(-158.215 0)" fill="#2d3e50"/><path d="M311.037,12.5a1,1,0,0,1-1,1H304a1,1,0,1,1,0-2.009h6.028A1,1,0,0,1,311.037,12.5Z" transform="translate(-242.117 -9.189)" fill="#1dace8"/><path d="M271.159,32.5v4.019a1,1,0,0,1-2.009,0V32.5a1,1,0,0,1,2.009,0Zm-5.023,1a1,1,0,0,0-1,1v2.009a1,1,0,0,0,2.009,0V34.514A1,1,0,0,0,266.135,33.509Zm-4.019,2.009a1,1,0,1,0,1,1A1,1,0,0,0,262.117,35.519ZM242.023,31.5H238a1,1,0,1,0,0,2.009h4.019a1,1,0,1,0,0-2.009Zm0,4.019H238a1,1,0,1,0,0,2.009h4.019a1,1,0,1,0,0-2.009Zm15.472,64.3h-6.43a2.009,2.009,0,1,0,0,4.019h6.43a2.009,2.009,0,1,0,0-4.019Z" transform="translate(-189.379 -25.17)" fill="#1dace8"/><path d="M79.306,124.528v51.264a10.671,10.671,0,0,1-17.94,7.826,51.714,51.714,0,0,1-4.866-5.253V124.528a6.028,6.028,0,0,1,6.028-6.028h10.75A6.028,6.028,0,0,1,79.306,124.528Z" transform="translate(-45.147 -94.689)" fill="#5b7320"/><path d="M135.264,125.028v72.336q0,.231-.017.457-1.932.145-3.9.146A51.215,51.215,0,0,1,100,187.316V125.028A6.028,6.028,0,0,1,106.028,119h23.208A6.028,6.028,0,0,1,135.264,125.028Z" transform="translate(-79.907 -95.089)" fill="#87b90e"/><path d="M91.233,120.848v8.037a2.01,2.01,0,0,1-1.607,1.969v59.516q0,.264-.018.523-1.516.159-3.058.228a4.536,4.536,0,0,0,.063-.751V118.035a4.526,4.526,0,0,0-4.521-4.521H72.145v1.306a2.009,2.009,0,0,1-2.009,2.009H62.1a2.009,2.009,0,0,1-2.009-2.009v-1.306H50.142a4.526,4.526,0,0,0-4.521,4.521V173.76q-1.592-1.8-3.014-3.753V138.892A2.01,2.01,0,0,1,41,136.923v-5.255a2.01,2.01,0,0,1,1.607-1.969v-1.626A2.01,2.01,0,0,1,41,126.1v-5.255a2.01,2.01,0,0,1,1.607-1.969v-.844a7.543,7.543,0,0,1,7.535-7.535H82.091a7.543,7.543,0,0,1,7.535,7.535v.844A2.01,2.01,0,0,1,91.233,120.848Z" transform="translate(-32.762 -88.296)" fill="#2d3e50"/><path d="M154.037,123a1,1,0,0,1-1,1H147A1,1,0,0,1,147,122h6.028A1,1,0,0,1,154.037,123Z" transform="translate(-116.664 -97.486)" fill="#1dace8"/><path d="M114.159,143v4.019a1,1,0,0,1-2.009,0V143a1,1,0,0,1,2.009,0Zm-5.023,1a1,1,0,0,0-1,1v2.009a1,1,0,1,0,2.009,0v-2.009A1,1,0,0,0,109.135,144.009Zm-4.019,2.009a1,1,0,1,0,1,1A1,1,0,0,0,105.117,146.019ZM85.023,142H81a1,1,0,1,0,0,2.009h4.019a1,1,0,1,0,0-2.009Zm0,4.019H81a1,1,0,0,0,0,2.009h4.019a1,1,0,0,0,0-2.009Z" transform="translate(-63.925 -113.467)" fill="#1dace8"/><path d="M36.168,373.509v19.719a2.009,2.009,0,0,1-2.009,2.009H2.009A2.009,2.009,0,0,1,0,393.229V373.509A2.009,2.009,0,0,1,2.009,371.5H34.159A2.009,2.009,0,0,1,36.168,373.509Z" transform="translate(0 -296.853)" fill="#1dace8"/><path d="M36.168,426.674v.24a2.009,2.009,0,0,1-2.009,2.009H2.009A2.009,2.009,0,0,1,0,426.913v-.24l18.084-13.3Z" transform="translate(0 -330.311)" fill="#75a10c"/><path d="M36.168,365.719v1.753l-18.084,13.3L0,367.472v-1.753a2.009,2.009,0,0,1,2.009-2.009H34.159A2.009,2.009,0,0,1,36.168,365.719Z" transform="translate(0 -290.628)" fill="url(#b)"/><path d="M362.813,84.6v15.838a2.009,2.009,0,0,1-2.009,2.009h-8.794A2.009,2.009,0,0,1,350,100.436V84.6a2.009,2.009,0,0,1,2.009-2.009H360.8A2.009,2.009,0,0,1,362.813,84.6Z" transform="translate(-279.673 -65.993)" fill="#5b7320"/><path d="M399.706,84.6v15.838a2.009,2.009,0,0,1-2.009,2.009H379.009A2.009,2.009,0,0,1,377,100.436V84.6a2.009,2.009,0,0,1,2.009-2.009H397.7A2.009,2.009,0,0,1,399.706,84.6Z" transform="translate(-301.248 -65.993)" fill="#87b90e"/><path d="M370,98a1,1,0,0,1,1-1h18.084a1,1,0,1,1,0,2.009H371A1,1,0,0,1,370,98Zm19.089,7.033H371a1,1,0,0,0,0,2.009h18.084a1,1,0,1,0,0-2.009ZM371,103.028H385.07a1,1,0,1,0,0-2.009H371a1,1,0,0,0,0,2.009Zm8.037,6.028H371a1,1,0,0,0,0,2.009h8.037a1,1,0,1,0,0-2.009Z" transform="translate(-295.655 -77.509)" fill="#fff5f5"/><path d="M264.353,249.607a1.508,1.508,0,0,1-.441,1.066l-6.359,6.359a1.507,1.507,0,0,1-2.132-2.131l3.787-3.787H232.17a1.507,1.507,0,1,1,0-3.014h27.038l-3.787-3.786a1.507,1.507,0,0,1,2.131-2.131l6.359,6.359A1.507,1.507,0,0,1,264.353,249.607Zm-36.674-4.9h20.287a1.507,1.507,0,1,0,0-3.014H227.679a1.507,1.507,0,1,0,0,3.014Zm20.287,9.846H227.679a1.507,1.507,0,0,0,0,3.014h20.287a1.507,1.507,0,0,0,0-3.014Z" transform="translate(-180.726 -193.13)" fill="#1dace8"/><path d="M74.742,268.752a4.069,4.069,0,1,1-5.514-5.514.271.271,0,0,1,.393.3,4.071,4.071,0,0,0,4.825,4.825A.271.271,0,0,1,74.742,268.752Zm-12.794-.792a3.016,3.016,0,0,1-3.574-3.574.2.2,0,0,0-.291-.22,3.014,3.014,0,1,0,4.084,4.084A.2.2,0,0,0,61.948,267.96Z" transform="translate(-45.148 -210.318)" fill="#1d81ab"/><path d="M95.99,249.407a1.507,1.507,0,0,1-1.507,1.507H86.114a1.507,1.507,0,0,1,0-3.014h8.369A1.507,1.507,0,0,1,95.99,249.407Zm-13.563-4.948h5.081a1.507,1.507,0,1,0,0-3.014H82.427a1.507,1.507,0,1,0,0,3.014Zm5.081,9.846H82.427a1.507,1.507,0,1,0,0,3.014h5.081a1.507,1.507,0,1,0,0-3.014Zm-11.554-8.942a4.052,4.052,0,0,0-1.946.495,4.07,4.07,0,0,0,5.52,5.52,4.07,4.07,0,0,0-3.574-6.015Zm-11.645,1.055a3,3,0,0,0-1.442.367,3.015,3.015,0,0,0,4.089,4.089,3.015,3.015,0,0,0-2.647-4.456Z" transform="translate(-49.942 -192.93)" fill="#1dace8"/></g></svg>