<svg xmlns="http://www.w3.org/2000/svg" xmlns:xlink="http://www.w3.org/1999/xlink" width="103.6" height="108.251" viewBox="0 0 103.6 108.251"><defs><linearGradient id="a" x1="0.5" x2="0.5" y2="1" gradientUnits="objectBoundingBox"><stop offset="0" stop-color="#9fc937"/><stop offset="1" stop-color="#50651c"/></linearGradient></defs><g transform="translate(0)"><path d="M98.386,111.436A51.8,51.8,0,1,0,62.8,125.6a52.324,52.324,0,0,0,6.617-.419Z" transform="translate(-10.999 -17.347)" fill="url(#a)"/><path d="M216.755,157.074a14.913,14.913,0,0,1-.474-5.133l.846-7.968a27.578,27.578,0,0,0-2.562-14.509c-5.718-11.631-4.406-12.475-4.584-24.019a4.27,4.27,0,1,0-8.54,0c0,46.944.087,43.5-.2,44.875v6.147a9.4,9.4,0,0,1-9.393,9.393H168.473a33.168,33.168,0,0,0,14.2,11.272l.106.044c4.4,1.86,9.323,5.573,10.145,10.179l.079.329A51.626,51.626,0,0,0,223,173.456Z" transform="translate(-135.178 -79.784)" fill="#f9ba8f"/><path d="M57.5,92.47l-1.3-1.2a4.969,4.969,0,1,0-6.755,7.29L57.5,106.02Z" transform="translate(-40.067 -70.93)" fill="#f9ba8f"/><path d="M52.09,96.879a4.97,4.97,0,0,1-1.537-4.321,4.918,4.918,0,0,0-1.373,1.034,4.984,4.984,0,0,0,.268,7.023l8.056,7.464v-6.184Z" transform="translate(-40.067 -72.989)" fill="#fcad6d"/><g transform="translate(50.76 78.31)"><path d="M282.284,370.388a25.171,25.171,0,0,1-31.206,20.7c3.35,2.048,6.363,5.042,6.99,8.557l.08.329a51.626,51.626,0,0,0,29.993-14.228Z" transform="translate(-251.077 -370.388)" fill="#fd995b"/></g><g transform="translate(17.251 0)"><path d="M134.245,86.279h-34.3a7.364,7.364,0,0,1-7.356-7.356V7.356A7.364,7.364,0,0,1,99.944,0h34.3A7.364,7.364,0,0,1,141.6,7.356V78.923a7.364,7.364,0,0,1-7.356,7.356Z" transform="translate(-92.588)" fill="#75a10c"/></g><path d="M99.944,0a7.364,7.364,0,0,0-7.356,7.356V78.922a7.364,7.364,0,0,0,7.356,7.356H110.17c-2.269-2.315.378-4.577.378-4.577-3.735-.98-3.418-4.906-3.418-4.906V13.051c0-3.753,3.812-4.7,3.812-4.7a2.179,2.179,0,0,1,0-3.079V2.729A1.989,1.989,0,0,1,110.13,0Z" transform="translate(-75.337 0)" fill="#75a10c"/><g transform="translate(34.332 2.729)"><path d="M175.386,15.45h-.734a1.271,1.271,0,1,1,0-2.543h.734a1.271,1.271,0,1,1,0,2.543Z" transform="translate(-173.38 -12.907)" fill="#707070"/></g><g transform="translate(39.406 2.729)"><path d="M205.705,15.45h-7.058a1.271,1.271,0,1,1,0-2.543h7.058a1.271,1.271,0,1,1,0,2.543Z" transform="translate(-197.376 -12.907)" fill="#707070"/></g><path d="M151.314,21.646h-5.155a1.74,1.74,0,0,0-1.74,1.74,2.04,2.04,0,0,1-2.034,2.034H125.943a2.04,2.04,0,0,1-2.034-2.034,1.74,1.74,0,0,0-1.74-1.74h-5.155a2.78,2.78,0,0,0-2.779,2.779V95.992a2.78,2.78,0,0,0,2.779,2.779h34.3a2.78,2.78,0,0,0,2.779-2.779V24.425A2.78,2.78,0,0,0,151.314,21.646Z" transform="translate(-92.407 -17.069)" fill="#8dbe18"/><path d="M127.616,98.772c-.529-2.281,2.117-2.813,2.117-2.813s1.683-14.738,0-16.421a2.212,2.212,0,0,1,0-3.271s1.838-14.583,0-16.421a2.06,2.06,0,0,1,0-3.271V40.153a3.7,3.7,0,0,1-1.561-5.07v-4.71a3.475,3.475,0,0,1-.162-4.952h-2.067a2.04,2.04,0,0,1-2.034-2.034,1.74,1.74,0,0,0-1.74-1.74h-5.155a2.779,2.779,0,0,0-2.779,2.779V95.993a2.78,2.78,0,0,0,2.779,2.779h10.6Z" transform="translate(-92.407 -17.07)" fill="#688f0b"/><g transform="translate(29.061 13.303)"><path d="M150.8,67.63h20.682a2.355,2.355,0,0,0,0-4.709H150.8a2.355,2.355,0,1,0,0,4.709Z" transform="translate(-148.45 -62.921)" fill="#e9efff"/></g><path d="M150.806,62.921h4.349v4.71h-4.349a2.355,2.355,0,0,1,0-4.71Z" transform="translate(-119.389 -49.618)" fill="#9bd8f9"/><g transform="translate(25.119 23.082)"><path d="M160.961,125.595h-29.04a2.124,2.124,0,0,1-2.118-2.118V111.292a2.124,2.124,0,0,1,2.118-2.118h29.04a2.124,2.124,0,0,1,2.118,2.118v12.185A2.124,2.124,0,0,1,160.961,125.595Z" transform="translate(-129.803 -109.174)" fill="#e9efff"/><path d="M160.961,218.735h-29.04a2.124,2.124,0,0,1-2.118-2.118V204.432a2.124,2.124,0,0,1,2.118-2.118h29.04a2.124,2.124,0,0,1,2.118,2.118v12.185A2.124,2.124,0,0,1,160.961,218.735Z" transform="translate(-129.803 -182.622)" fill="#e9efff"/><path d="M160.961,311.875h-29.04a2.124,2.124,0,0,1-2.118-2.118V297.572a2.124,2.124,0,0,1,2.118-2.118h29.04a2.124,2.124,0,0,1,2.118,2.118v12.185A2.124,2.124,0,0,1,160.961,311.875Z" transform="translate(-129.803 -256.069)" fill="#e9efff"/><path d="M160.961,125.595h-29.04a2.124,2.124,0,0,1-2.118-2.118V111.292a2.124,2.124,0,0,1,2.118-2.118h29.04a2.124,2.124,0,0,1,2.118,2.118v12.185A2.124,2.124,0,0,1,160.961,125.595Z" transform="translate(-129.803 -109.174)" fill="#e9efff"/><path d="M160.961,218.735h-29.04a2.124,2.124,0,0,1-2.118-2.118V204.432a2.124,2.124,0,0,1,2.118-2.118h29.04a2.124,2.124,0,0,1,2.118,2.118v12.185A2.124,2.124,0,0,1,160.961,218.735Z" transform="translate(-129.803 -182.622)" fill="#e9efff"/><path d="M160.961,311.875h-29.04a2.124,2.124,0,0,1-2.118-2.118V297.572a2.124,2.124,0,0,1,2.118-2.118h29.04a2.124,2.124,0,0,1,2.118,2.118v12.185A2.124,2.124,0,0,1,160.961,311.875Z" transform="translate(-129.803 -256.069)" fill="#e9efff"/></g><path d="M139.892,123.478V111.293a2.124,2.124,0,0,1,2.118-2.118H131.921a2.124,2.124,0,0,0-2.118,2.118v12.185a2.124,2.124,0,0,0,2.118,2.118H142.01A2.124,2.124,0,0,1,139.892,123.478Z" transform="translate(-104.684 -86.092)" fill="#d3dcfb"/><path d="M139.892,216.617V204.432a2.124,2.124,0,0,1,2.118-2.118H131.921a2.124,2.124,0,0,0-2.118,2.118v12.185a2.124,2.124,0,0,0,2.118,2.118H142.01A2.124,2.124,0,0,1,139.892,216.617Z" transform="translate(-104.684 -159.539)" fill="#d3dcfb"/><path d="M139.892,309.757V297.572a2.124,2.124,0,0,1,2.118-2.118H131.921a2.124,2.124,0,0,0-2.118,2.118v12.185a2.124,2.124,0,0,0,2.118,2.118H142.01A2.124,2.124,0,0,1,139.892,309.757Z" transform="translate(-104.684 -232.987)" fill="#d3dcfb"/><g transform="translate(30.534 26.722)"><path d="M165.492,129.558H157a1.586,1.586,0,0,1,0-3.171h8.493a1.586,1.586,0,0,1,0,3.171Z" transform="translate(-155.413 -126.387)" fill="#3c58a0"/></g><g transform="translate(30.534 32.693)"><path d="M176.274,157.8H157a1.586,1.586,0,0,1,0-3.171h19.276a1.586,1.586,0,0,1,0,3.171Z" transform="translate(-155.413 -154.629)" fill="#bec8f7"/></g><g transform="translate(44.453 26.722)"><path d="M224.032,129.558h-1.2a1.586,1.586,0,0,1,0-3.171h1.2a1.586,1.586,0,0,1,0,3.171Z" transform="translate(-221.248 -126.387)" fill="#bec8f7"/></g><g transform="translate(30.534 46.414)"><path d="M165.492,222.7H157a1.586,1.586,0,0,1,0-3.171h8.493a1.586,1.586,0,1,1,0,3.171Z" transform="translate(-155.413 -219.527)" fill="#3c58a0"/></g><g transform="translate(30.534 52.385)"><path d="M176.274,250.94H157a1.586,1.586,0,0,1,0-3.171h19.276a1.586,1.586,0,0,1,0,3.171Z" transform="translate(-155.413 -247.769)" fill="#bec8f7"/></g><g transform="translate(44.453 46.414)"><path d="M224.032,222.7h-1.2a1.586,1.586,0,0,1,0-3.171h1.2a1.586,1.586,0,0,1,0,3.171Z" transform="translate(-221.248 -219.527)" fill="#bec8f7"/></g><g transform="translate(30.534 66.107)"><path d="M165.492,315.838H157a1.586,1.586,0,0,1,0-3.171h8.493a1.586,1.586,0,1,1,0,3.171Z" transform="translate(-155.413 -312.667)" fill="#3c58a0"/></g><g transform="translate(30.534 72.078)"><path d="M176.274,344.08H157a1.586,1.586,0,1,1,0-3.171h19.276a1.586,1.586,0,1,1,0,3.171Z" transform="translate(-155.413 -340.909)" fill="#bec8f7"/></g><g transform="translate(44.453 66.107)"><path d="M224.032,315.838h-1.2a1.586,1.586,0,0,1,0-3.171h1.2a1.586,1.586,0,0,1,0,3.171Z" transform="translate(-221.248 -312.667)" fill="#bec8f7"/></g><path d="M72.313,173.358a4.354,4.354,0,0,1-6.153.235l-7.294-6.758a4.354,4.354,0,1,1,5.919-6.388l7.294,6.758A4.354,4.354,0,0,1,72.313,173.358Z" transform="translate(-47.645 -125.608)" fill="#f9ba8f"/><path d="M69.16,171.178l-7.294-6.758a4.353,4.353,0,0,1-1.252-4.3,4.348,4.348,0,0,0-1.749,7.372l7.294,6.758a4.353,4.353,0,0,0,7.17-2.088A4.348,4.348,0,0,1,69.16,171.178Z" transform="translate(-47.645 -126.266)" fill="#fcad6d"/><g transform="translate(9.826 57.431)"><path d="M72.313,285.707a4.354,4.354,0,0,1-6.153.235l-7.294-6.758a4.354,4.354,0,1,1,5.919-6.388l7.294,6.758A4.354,4.354,0,0,1,72.313,285.707Z" transform="translate(-57.471 -271.635)" fill="#f9ba8f"/></g><path d="M69.16,283.526l-7.294-6.758a4.353,4.353,0,0,1-1.252-4.3,4.348,4.348,0,0,0-1.749,7.372l7.294,6.758a4.353,4.353,0,0,0,7.17-2.088A4.347,4.347,0,0,1,69.16,283.526Z" transform="translate(-47.645 -214.861)" fill="#fcad6d"/><path d="M72.313,229.533a4.354,4.354,0,0,1-6.153.234l-7.294-6.758a4.354,4.354,0,1,1,5.919-6.388l7.294,6.758A4.354,4.354,0,0,1,72.313,229.533Z" transform="translate(-47.645 -169.906)" fill="#f9ba8f"/><path d="M69.16,227.352l-7.294-6.758a4.353,4.353,0,0,1-1.252-4.3,4.348,4.348,0,0,0-1.749,7.372l7.294,6.758a4.353,4.353,0,0,0,7.17-2.088A4.347,4.347,0,0,1,69.16,227.352Z" transform="translate(-47.645 -170.563)" fill="#fcad6d"/><path d="M406.951,86.887c-2.812,3.576-5.349,8.715-3.321,14.323,3.806,10.519,9.867,19.449,7.048,35-1.279,7.056,2.918,10.013,7.885,11.139a51.821,51.821,0,0,0-11.612-60.461Z" transform="translate(-320.039 -68.517)" fill="#75a10c"/></g></svg>