<svg xmlns="http://www.w3.org/2000/svg" xmlns:xlink="http://www.w3.org/1999/xlink" width="54.48" height="54.69" viewBox="0 0 54.48 54.69"><defs><linearGradient id="a" x1="0.5" x2="0.5" y2="1" gradientUnits="objectBoundingBox"><stop offset="0" stop-color="#9fc937"/><stop offset="1" stop-color="#50651c"/></linearGradient><linearGradient id="b" x1="0.5" x2="0.5" y2="1" gradientUnits="objectBoundingBox"><stop offset="0" stop-color="#1dace8"/><stop offset="1" stop-color="#0f5674"/></linearGradient><linearGradient id="c" y2="1.874" xlink:href="#a"/></defs><g transform="translate(12.875)"><path d="M121,0V9.862a9.4,9.4,0,0,1,10.961,11.5l-2.37,10.669h2.841L136.687,44.8h3.466V54.48H162.6V0Zm23.941,32.028a11.173,11.173,0,1,1,0-22.345,11.061,11.061,0,0,1,6.924,2.474l1.376-1.835,2.553,1.914L154.1,14.492a11.149,11.149,0,0,1-9.161,17.536Z" transform="translate(-121)" fill="url(#a)"/></g><g transform="translate(28.836 12.875)"><path d="M286.066,125.386l-6.912,9.217-4.494-4.494,2.257-2.257,1.891,1.891L284,122.825A7.9,7.9,0,0,0,278.98,121a7.98,7.98,0,1,0,7.98,7.98A7.878,7.878,0,0,0,286.066,125.386Z" transform="translate(-271 -121)" fill="url(#b)"/></g><g transform="translate(0 47.959)"><g transform="translate(0 0)"><rect width="29.028" height="6.731" fill="url(#c)"/></g></g><g transform="translate(3.744 35.221)"><path d="M53.448,331H38.379l-3.193,9.577H56.641Z" transform="translate(-35.186 -331)" fill="url(#c)"/></g><g transform="translate(8.067 12.875)"><path d="M82.221,121a6.4,6.4,0,0,0-6.249,7.79L78.5,140.153h7.45L88.47,128.79A6.4,6.4,0,0,0,82.221,121Z" transform="translate(-75.817 -121)" fill="url(#c)"/></g></svg>