<svg xmlns="http://www.w3.org/2000/svg" xmlns:xlink="http://www.w3.org/1999/xlink" width="84.065" height="84.052" viewBox="0 0 84.065 84.052">
  <defs>
    <linearGradient id="linear-gradient" x1="0.5" y1="0.617" x2="0.5" y2="1" gradientUnits="objectBoundingBox">
      <stop offset="0" stop-color="#9fc937"/>
      <stop offset="1" stop-color="#50651c"/>
    </linearGradient>
  </defs>
  <g id="Group_126" data-name="Group 126" transform="translate(-296)">
    <path id="Path_486" data-name="Path 486" d="M50.274-500.746a7.8,7.8,0,0,0-5.436,4.014c-1.3,2.506-1.444,7.517-.361,10.745a12.22,12.22,0,0,0,2.952,5.033l1.062,1.062-.255,1.614a9.037,9.037,0,0,1-1.656,4.2,10.338,10.338,0,0,1-4.014,2.527,25.588,25.588,0,0,0-10.193,6.307c-3.589,3.759-6.88,10.83-7.942,17.094-.488,2.824-.531,4.077-.17,4.587.573.744,6.03.658,10.129-.191a17.418,17.418,0,0,0,8.048-3.886l.679-.7v.637a39.875,39.875,0,0,1-1.083,6.073c-1.1,4.31-3.355,7.793-6.052,9.386l-.871.51-1.72-.722a41.889,41.889,0,0,0-7.454-2.357c-2.464-.51-6.646-.361-8.282.276-1.55.616-1.933,1-1.933,2,0,3.185,3.695,8.176,8.9,12.04l1.763,1.3H18.612c-7.5,0-7.793.021-8.2.425a1.428,1.428,0,0,0-.425.743,1.433,1.433,0,0,0,.425.744c.425.425.7.425,41.621.425s41.2,0,41.621-.425a.893.893,0,0,0,0-1.487c-.4-.4-.7-.425-8.218-.425H77.667l1.783-1.317a36.507,36.507,0,0,0,6.286-6.01,12.543,12.543,0,0,0,2.549-5.585c.106-1.168.085-1.274-.467-1.7-1.656-1.3-5.925-1.741-9.747-1.019a41.5,41.5,0,0,0-7.645,2.464l-1.465.637-.871-.51c-2.7-1.593-4.926-5.011-6.073-9.365a39.471,39.471,0,0,1-1.062-6.115v-.616l.7.7a16.481,16.481,0,0,0,7.793,3.822,40.977,40.977,0,0,0,8.77.743c1.763-.233,1.933-.467,1.763-2.633A35.577,35.577,0,0,0,76.456-458a24.954,24.954,0,0,0-4.884-7.369,22.376,22.376,0,0,0-9.173-5.861c-2.676-1.041-3.716-1.656-4.715-2.782a7.362,7.362,0,0,1-1.868-4.31l-.255-1.614.849-.786c2.527-2.378,3.907-6.115,3.907-10.533-.021-5.309-2.166-8.515-6.285-9.386A8.058,8.058,0,0,0,50.274-500.746Zm4.629,2.7c1.72.892,2.718,2.506,3.1,4.969.7,4.587-1.3,9.938-4.31,11.467-2.272,1.168-4.863-.255-6.434-3.525a12.148,12.148,0,0,1-1.274-6.052c0-4.056,1.3-6.307,4.141-7.242A9.872,9.872,0,0,1,54.9-498.049Zm-1.231,20.492c.616,3.992,3.376,6.965,7.708,8.346a21.588,21.588,0,0,1,8.515,5.33c3.376,3.546,6.2,9.343,7.39,15.311a21.425,21.425,0,0,1,.446,2.7c0,.531-.043.552-1.38.552-5.882,0-10.893-1.614-13.4-4.311a28.952,28.952,0,0,1-6.669-13.337,17.192,17.192,0,0,0-.679-2.484,1.441,1.441,0,0,0-1.614,0c-.383.383-.318,1.317.255,3.674a32.422,32.422,0,0,0,2.888,7.751c1.168,2.294,1.253,2.569,1.38,4.353.679,9.28,3.058,15.4,7.305,18.623l.7.531-1.444.807a73.709,73.709,0,0,0-11.531,7.836,13.627,13.627,0,0,1-1.487,1.189A24.222,24.222,0,0,1,50.02-422.3a83.424,83.424,0,0,0-10.278-6.965l-2.209-1.252.722-.531c4.289-3.27,6.6-9.216,7.327-18.836a6.366,6.366,0,0,1,1.083-3.589,41.264,41.264,0,0,0,3.886-10.066c.233-1,.213-1.168-.106-1.529a1.219,1.219,0,0,0-1.529-.255,7.847,7.847,0,0,0-.807,2.251c-1.359,5.224-4.226,10.745-7.114,13.675-2.421,2.464-7.581,4.077-13.017,4.077H26.3l.148-1.338a40.742,40.742,0,0,1,2-7.645c3.143-7.9,6.987-12.042,13.591-14.611,1.232-.488,2.718-1.125,3.291-1.4a11.136,11.136,0,0,0,4.014-3.929,13.215,13.215,0,0,0,1.21-4.2c0-.51.043-.531,1.444-.531h1.444ZM26.979-432.283a55.447,55.447,0,0,1,14.567,6.732,62.482,62.482,0,0,1,7.921,5.8l.51.552H30.525l-2.06-1.359c-4.29-2.867-7.857-6.222-9.386-8.855-.786-1.3-1.21-2.633-.956-2.888a6.477,6.477,0,0,1,1.253-.4A18.742,18.742,0,0,1,26.979-432.283Zm57.611-.425a6.331,6.331,0,0,1,1.359.4c.255.255-.191,1.593-.956,2.888-1.55,2.655-5.161,6.052-9.428,8.855l-2.06,1.359H54.1l.51-.552a63.284,63.284,0,0,1,7.942-5.819,72.589,72.589,0,0,1,11.977-5.945C78.538-432.878,82.106-433.3,84.59-432.708Z" transform="translate(286.01 500.918)" fill="url(#linear-gradient)"/>
  </g>
</svg>
