<svg xmlns="http://www.w3.org/2000/svg" xmlns:xlink="http://www.w3.org/1999/xlink" width="64.576" height="60.54" viewBox="0 0 64.576 60.54"><defs><linearGradient id="a" x1="0.5" x2="0.5" y2="1" gradientUnits="objectBoundingBox"><stop offset="0" stop-color="#9fc937"/><stop offset="1" stop-color="#50651c"/></linearGradient><linearGradient id="d" x1="0.929" y1="0.288" x2="0.094" y2="1" gradientUnits="objectBoundingBox"><stop offset="0" stop-color="#1dace8"/><stop offset="1" stop-color="#0f5674"/></linearGradient></defs><g transform="translate(0 -16)"><g transform="translate(0 16)"><g transform="translate(3.784 30.27)"><path d="M35.676,267.351a5.676,5.676,0,1,1,5.676-5.676A5.682,5.682,0,0,1,35.676,267.351Z" transform="translate(-30 -256)" fill="#75a10c"/></g><g transform="translate(0 41.621)"><path d="M18.919,364.919H0v-8.9c0-4.947,3.549-9.466,8.47-9.968a9.47,9.47,0,0,1,10.448,9.409Z" transform="translate(0 -346)" fill="url(#a)"/></g><g transform="translate(26.612 30.27)"><path d="M216.676,267.351a5.676,5.676,0,1,1,5.676-5.676A5.682,5.682,0,0,1,216.676,267.351Z" transform="translate(-211 -256)" fill="#75a10c"/></g><g transform="translate(22.829 41.621)"><path d="M199.919,364.919H181v-8.9c0-4.947,3.549-9.466,8.47-9.968a9.47,9.47,0,0,1,10.448,9.409Z" transform="translate(-181 -346)" fill="url(#a)"/></g><g transform="translate(49.441 30.27)"><path d="M397.676,267.351a5.676,5.676,0,1,1,5.676-5.676A5.682,5.682,0,0,1,397.676,267.351Z" transform="translate(-392 -256)" fill="#75a10c"/></g><g transform="translate(45.657 41.621)"><path d="M380.919,364.919H362v-8.9c0-4.947,3.549-9.466,8.47-9.968a9.47,9.47,0,0,1,10.448,9.409Z" transform="translate(-362 -346)" fill="url(#a)"/></g><g transform="translate(11.477)"><path d="M111.811,16A13.259,13.259,0,0,0,98.568,29.243a13.415,13.415,0,0,0,.133,1.892h7.783a5.61,5.61,0,0,1-.348-1.892,5.676,5.676,0,1,1,5.676,5.676H91v7.567h20.811a13.243,13.243,0,0,0,0-26.486Z" transform="translate(-91 -16)" fill="url(#d)"/></g></g><path d="M350.79,166h-4.8a16.113,16.113,0,0,1-5.33,7.568H350.79l3.784-3.784Z" transform="translate(-297.692 -131.081)" fill="#14729a"/></g></svg>